<?xml version="1.0" encoding="utf-8"?>
<!-- Generator: Adobe Illustrator 15.1.0, SVG Export Plug-In . SVG Version: 6.00 Build 0)  -->
<!DOCTYPE svg PUBLIC "-//W3C//DTD SVG 1.1//EN" "http://www.w3.org/Graphics/SVG/1.1/DTD/svg11.dtd">
<svg version="1.1" id="Layer_1" xmlns="http://www.w3.org/2000/svg" xmlns:xlink="http://www.w3.org/1999/xlink" x="0px" y="0px"
	 width="450px" height="100px" viewBox="0 0 450 100" enable-background="new 0 0 450 100" xml:space="preserve">
<g>
	<path fill="#FFFFFF" d="M328.201,48.061l-0.514,0.392c0.125-2.437,0.35-6.075,0.738-11.506c0.723-10.12,0.944-16.552,0.678-19.665
		c-0.179-2.095-0.532-3.607-1.113-4.759l-1.24-2.456l-2.742,0.234c-3.153,0.269-6.369,1.196-9.562,2.756l-2.861,1.397l0.666,3.114
		c0.268,1.253,0.436,2.272,0.5,3.029c0.251,2.931,0.215,7.132-0.102,12.525c-1.484-1.711-3.471-2.656-5.667-2.656
		c-0.225,0-0.452,0.01-0.683,0.029c-1.413,0.121-2.85,0.596-4.33,1.438l-0.22-0.538l-2.989,0.255
		c-4.132,0.354-7.16,0.941-9.38,1.814c0.497-5.269,0.628-9.177,0.398-11.865c-0.199-2.347-0.708-4.034-1.601-5.307l-1.346-1.922
		l-2.336,0.2c-3.01,0.257-6.287,1.359-10.023,3.368l-2.486,1.337l1.109,8.199c0.201,2.384,0.37,5.189,0.506,8.388
		c-1.631-1.351-3.723-2.071-6.087-2.071c-0.357,0-0.726,0.016-1.106,0.048c-0.447,0.038-0.895,0.106-1.344,0.204
		c0.253-5.184,0.277-8.889,0.077-11.235c-0.227-2.643-0.658-4.194-1.491-5.354l-1.35-1.881l-2.307,0.197
		c-2.936,0.251-6.115,1.194-9.45,2.804l-3.04,1.467l0.877,3.259c0.16,0.596,0.279,1.333,0.354,2.191
		c0.181,2.118,0.15,5.556-0.086,10.25l-3.477,0.297c-2.998,0.257-5.324,0.757-7.129,1.546l-0.335-0.844L234.689,37
		c-3.179,0.272-6.069,0.821-8.635,1.631c0.345-6.108,0.417-10.249,0.219-12.563c-0.18-2.095-0.533-3.606-1.113-4.756l-1.241-2.458
		l-2.742,0.234c-3.154,0.27-6.371,1.197-9.563,2.757l-2.861,1.397l0.666,3.114c0.268,1.253,0.437,2.272,0.502,3.029
		c0.204,2.388,0.217,5.625,0.044,9.663l-2.883,0.247c-2.999,0.256-5.325,0.756-7.13,1.546l-0.335-0.844l-3.017,0.258
		c-4.078,0.348-7.691,1.148-10.739,2.378l-0.195,0.079c-1.492-0.963-3.286-1.474-5.272-1.474c-0.357,0-0.726,0.016-1.106,0.048
		c-0.447,0.038-0.895,0.106-1.344,0.204c0.253-5.186,0.277-8.89,0.077-11.234c-0.226-2.643-0.658-4.195-1.491-5.355l-1.35-1.881
		l-2.307,0.197c-2.937,0.251-6.116,1.194-9.45,2.804l-3.036,1.466l0.872,3.256c0.161,0.602,0.28,1.341,0.353,2.196
		c0.203,2.373,0.142,6.395-0.178,11.991c-1.529-1.047-3.393-1.603-5.466-1.603c-0.357,0-0.726,0.016-1.106,0.048
		c-0.447,0.038-0.895,0.106-1.344,0.204c0.253-5.186,0.277-8.891,0.077-11.233c-0.225-2.642-0.657-4.193-1.49-5.355l-1.35-1.883
		l-2.308,0.197c-2.937,0.251-6.116,1.194-9.45,2.804l-3.036,1.466l0.872,3.256c0.161,0.601,0.279,1.339,0.353,2.195
		c0.181,2.121,0.151,5.558-0.084,10.251l-3.478,0.296c-2.999,0.256-5.324,0.757-7.129,1.546l-0.334-0.844l-3.019,0.258
		c-3.271,0.279-6.235,0.854-8.855,1.702c-1.044-0.688-2.25-1.063-3.562-1.063c-0.199,0-0.401,0.009-0.604,0.026
		c-0.959,0.082-1.827,0.379-2.612,0.822l-0.011-0.022l-2.822,0.241c-3.463,0.296-6.142,0.78-8.236,1.484
		c-1.033-0.667-2.222-1.03-3.513-1.03c-0.197,0-0.398,0.009-0.603,0.026c-0.959,0.082-1.827,0.379-2.612,0.822L89.7,49.519
		l-2.822,0.242c-4.892,0.418-8.242,1.202-10.545,2.468l-0.221,0.122c-1.787-1.103-3.843-1.668-6.141-1.668
		c-0.41,0-0.832,0.018-1.256,0.055c-3.621,0.31-6.783,1.874-9.287,4.552c-1.624-1.968-4.015-3.052-6.98-3.052
		c-0.358,0-0.73,0.016-1.114,0.049l-2.431,0.207l-0.573,1.333c-1.099-0.605-2.378-0.925-3.776-0.925
		c-0.273,0-0.555,0.012-0.843,0.037c-0.916,0.077-1.881,0.258-2.947,0.551c-0.5,0.104-0.984,0.234-1.439,0.387
		c-0.408,0.137-0.778,0.271-1.134,0.409c-0.258,0.102-0.489,0.188-0.684,0.263c-0.299,0.111-0.609,0.238-0.926,0.381l-2.141,0.961
		l-0.511,4.928l1,1.291c1.059,1.365,1.271,2.212,1.304,2.594c0.119,1.395,0.22,3.714,0.299,6.894
		c0.084,3.382,0.191,5.798,0.327,7.386c0.845,9.885,6.655,10.951,9.114,10.951c0.275,0,0.558-0.012,0.846-0.037
		c3.475-0.296,6.542-2.427,9.116-6.332c0.356-0.541,0.693-1.101,1.02-1.668c0.402,0.736,0.849,1.42,1.35,2.043
		c2.201,2.74,5.194,4.189,8.657,4.189c0.36,0,0.729-0.016,1.104-0.048c1.647-0.141,3.273-0.599,4.835-1.36
		c1.36-0.664,2.475-1.381,3.417-2.178l0.581,2.398l3.847-0.328c4.821-0.412,7.825-1.155,9.739-2.41l2.077-1.362l-0.501-4.774
		c-0.101-1.221-0.138-3.988,0.206-10.285l0.348-0.09c0.381-0.098,0.753-0.225,1.118-0.371c-0.017,0.318-0.035,0.639-0.055,0.983
		c-0.414,7.342-0.355,9.428-0.276,10.358c0.128,1.492,0.278,2.561,0.472,3.363l0.823,3.395l3.845-0.327
		c4.822-0.411,7.827-1.155,9.742-2.413l2.075-1.361l-0.501-4.771c-0.1-1.222-0.138-3.99,0.206-10.286l0.348-0.09
		c0.253-0.065,0.501-0.145,0.748-0.231c-0.381,3.808-0.492,6.586-0.333,8.449c0.219,2.564,0.976,4.699,2.246,6.342
		c1.468,1.9,3.644,2.947,6.125,2.947c0.261,0,0.529-0.011,0.806-0.035c2.03-0.173,4.024-0.873,5.96-2.088
		c1.161,0.78,2.539,1.201,4.059,1.201c0.241,0,0.489-0.012,0.742-0.033c1.695-0.145,3.427-0.739,5.269-1.806l0.146,0.831
		l3.711-0.316c3.603-0.308,6.765-1.006,9.401-2.074l1.154-0.469c1.344,1.121,2.964,1.719,4.741,1.719c0.225,0,0.453-0.01,0.684-0.03
		c1.564-0.134,3.125-0.603,4.658-1.393l0.085,0.477l3.704-0.317c3.603-0.309,6.765-1.006,9.399-2.073l1.156-0.469
		c1.344,1.122,2.964,1.718,4.74,1.718c0.224,0,0.452-0.01,0.684-0.029c2.154-0.184,4.299-0.998,6.376-2.418
		c0.29-0.197,0.563-0.395,0.83-0.59c1.387,1.238,3.167,1.917,5.15,1.917c0.264,0,0.534-0.011,0.81-0.035
		c2.031-0.173,4.024-0.872,5.96-2.087c1.161,0.779,2.539,1.2,4.059,1.2c0.24,0,0.487-0.011,0.74-0.032
		c1.967-0.168,3.983-0.938,6.161-2.353c0.441-0.286,0.854-0.575,1.249-0.865c1.503,1.37,3.341,2.095,5.361,2.095
		c0.241,0,0.487-0.01,0.735-0.031c1.958-0.168,3.997-0.936,6.064-2.286c0.52-0.341,1.01-0.7,1.476-1.074
		c1.429,1.433,3.338,2.214,5.478,2.214c0.261,0,0.529-0.011,0.807-0.034c2.029-0.173,4.022-0.873,5.959-2.088
		c1.16,0.78,2.538,1.2,4.059,1.2c0.241,0,0.488-0.011,0.742-0.032c1.696-0.146,3.43-0.74,5.271-1.808l0.146,0.832l3.707-0.316
		c3.602-0.307,6.766-1.005,9.402-2.074l1.153-0.468c1.345,1.121,2.965,1.718,4.742,1.718c0.224,0,0.452-0.01,0.684-0.029
		c2.153-0.184,4.298-0.998,6.376-2.418c0.202-0.137,0.395-0.275,0.585-0.412c1.407,1.316,3.196,2.012,5.222,2.012
		c0.253,0,0.512-0.011,0.777-0.033c1.768-0.151,4.289-0.938,6.268-3.828c0.164-0.24,0.316-0.484,0.458-0.732l0.284,3.322
		l4.831-0.414c4.34-0.371,7.313-1.157,9.347-2.47c1.791,1.437,3.805,1.62,4.71,1.62c0.252,0,0.511-0.011,0.774-0.033
		c1.998-0.17,4.051-0.964,6.1-2.357c0.438-0.297,0.857-0.603,1.257-0.914c1.513,1.404,3.371,2.148,5.415,2.148
		c0.241,0,0.486-0.01,0.735-0.031c1.958-0.168,3.998-0.937,6.065-2.287c1.94-1.27,3.518-2.777,4.684-4.484l1.29-1.884
		L328.201,48.061z M273.174,54.708c-0.071,0.109-0.131,0.222-0.197,0.332c-0.131-0.403-0.275-0.87-0.434-1.411
		c0.523-0.419,0.999-0.866,1.436-1.333l0.012,1.316C273.709,53.94,273.436,54.305,273.174,54.708z M287.31,52.191
		c-0.072,0.962-0.131,1.864-0.184,2.739c-0.3-0.541-0.644-1.049-1.042-1.516c0-0.002,0-0.004-0.002-0.004l0.197-0.121l0.465-1.449
		c0.219-0.685,0.498-1.794,0.887-4.21C287.557,48.8,287.453,50.283,287.31,52.191z"/>
</g>
<path opacity="0.3" fill="#241F20" d="M126.475,22.151c-2.105-5.333-8.135-7.95-13.468-5.845c-2.873,1.134-4.956,3.408-5.939,6.098
	c-2.253-1.39-5.111-1.736-7.762-0.69c-4.467,1.764-6.659,6.814-4.896,11.281c1.168,2.96,3.781,4.919,6.71,5.393
	c1.444,5.695,3.824,12.807,6.925,14.153c4.726,2.051,17.629-2.65,19.17-7.567c0.796-2.539-0.933-7.291-3.036-11.69
	C126.998,30.447,128.037,26.108,126.475,22.151z"/>
<g>
	<path d="M41.773,54.997c1.513-0.129,2.617,0.311,3.313,1.316c0.695,1.008,1.119,2.391,1.269,4.147
		c0.15,1.757,0.141,4.413-0.028,7.968c-0.169,3.555-0.205,5.894-0.109,7.016c0.096,1.121,0.355,1.664,0.779,1.629
		c0.727-0.062,1.598-1.107,2.614-3.135c1.015-2.027,1.625-3.988,1.829-5.883l-3.745-4.223c-0.031-1.789,0.099-3.475,0.391-5.056
		c0.292-1.581,0.577-2.704,0.856-3.368l0.457-1.063c3.662-0.313,5.666,1.542,6.01,5.565c0.246,2.88-0.086,6.129-0.997,9.746
		c-0.91,3.618-2.296,6.84-4.159,9.664c-1.862,2.826-3.883,4.33-6.062,4.518c-3.269,0.279-5.12-2.122-5.555-7.203
		c-0.126-1.482-0.231-3.861-0.313-7.14c-0.082-3.277-0.186-5.656-0.313-7.14c-0.126-1.48-0.841-3.062-2.143-4.742l0.1-0.969
		c0.234-0.105,0.463-0.199,0.685-0.282c0.222-0.083,0.472-0.179,0.753-0.288c0.28-0.109,0.59-0.221,0.932-0.336
		c0.341-0.113,0.707-0.209,1.096-0.285C40.297,55.21,41.076,55.058,41.773,54.997z"/>
	<path d="M56.31,70.454c-0.449-5.25,0.344-9.434,2.38-12.552c2.035-3.116,4.733-4.819,8.092-5.106
		c2.331-0.199,4.261,0.352,5.789,1.649c1.529,1.298,2.395,3.133,2.597,5.504c0.141,1.651-0.109,3.188-0.75,4.606
		c-0.641,1.421-1.475,2.537-2.504,3.35c-2.056,1.626-3.978,2.686-5.765,3.18l-1.113,0.352c0.571,2.766,1.69,4.078,3.354,3.936
		c0.727-0.062,1.509-0.353,2.35-0.873c0.839-0.52,1.496-1.033,1.972-1.543l0.717-0.701l1.687,2.606l-0.44,0.741
		c-0.16,0.27-0.548,0.805-1.167,1.604c-0.617,0.799-1.274,1.506-1.968,2.119c-0.695,0.614-1.598,1.192-2.709,1.736
		c-1.113,0.542-2.244,0.863-3.394,0.961c-2.573,0.221-4.652-0.658-6.239-2.634C57.613,77.413,56.649,74.435,56.31,70.454z
		 M66.873,64.018c0.72-1.917,1.027-3.5,0.92-4.749s-0.417-1.853-0.932-1.809c-0.756,0.064-1.382,0.95-1.876,2.656
		c-0.495,1.705-0.657,4.087-0.487,7.143C65.36,67.017,66.152,65.935,66.873,64.018z"/>
	<path d="M78.117,80.556l-0.363,0.03c-0.142-0.585-0.266-1.501-0.373-2.751c-0.107-1.248-0.013-4.51,0.284-9.781
		c0.296-5.271,0.414-8.268,0.353-8.987c-0.116-1.354-0.633-2.591-1.551-3.706l-0.463-0.601l0.009-0.96
		c1.748-0.96,4.725-1.62,8.932-1.979c0.484,1.025,0.833,2.254,1.047,3.685c1.57-3.033,3.036-4.609,4.398-4.726
		c1.028-0.088,1.851,0.344,2.466,1.293c0.614,0.95,1.065,2.563,1.351,4.843c-0.126,0.31-0.306,0.698-0.541,1.166
		s-0.772,1.133-1.613,1.993c-0.841,0.861-1.753,1.419-2.738,1.673c-0.031,0.004-0.275-0.445-0.732-1.345
		c-0.458-0.898-0.793-1.339-1.005-1.321s-0.675,0.484-1.39,1.398l-0.19,3.663c-0.361,6.13-0.452,10.233-0.274,12.308l0.246,2.346
		C84.699,79.63,82.082,80.216,78.117,80.556z"/>
	<path d="M95.914,79.034l-0.363,0.031c-0.142-0.585-0.266-1.502-0.373-2.752c-0.107-1.248-0.012-4.509,0.284-9.781
		c0.297-5.271,0.414-8.266,0.353-8.986c-0.116-1.355-0.633-2.591-1.551-3.707l-0.463-0.6l0.01-0.961
		c1.747-0.959,4.724-1.62,8.931-1.979c0.484,1.025,0.833,2.254,1.047,3.685c1.57-3.034,3.036-4.61,4.398-4.727
		c1.028-0.088,1.851,0.344,2.465,1.293c0.614,0.95,1.065,2.564,1.352,4.842c-0.127,0.311-0.307,0.698-0.541,1.166
		c-0.234,0.469-0.772,1.133-1.613,1.994c-0.841,0.861-1.753,1.419-2.738,1.673c-0.031,0.003-0.275-0.445-0.732-1.345
		c-0.458-0.898-0.793-1.34-1.004-1.322c-0.212,0.019-0.676,0.484-1.39,1.398l-0.19,3.664c-0.361,6.131-0.452,10.232-0.274,12.307
		l0.247,2.346C102.496,78.108,99.879,78.695,95.914,79.034z"/>
	<path d="M112.604,72.042c-0.152-1.779-0.002-4.744,0.451-8.9c0.452-4.154,0.641-6.687,0.562-7.598
		c-0.078-0.91-0.738-2.208-1.979-3.894l0.01-0.96c2.681-1.082,5.869-1.781,9.562-2.097c0.311,0.785,0.533,1.96,0.667,3.526
		c0.134,1.567-0.03,4.556-0.491,8.968s-0.665,6.934-0.611,7.568c0.105,1.23,0.536,1.811,1.292,1.746
		c0.515-0.045,1.142-0.375,1.882-0.992c0.033-0.686,0.153-2.486,0.361-5.406c0.513-6.483,0.633-11.314,0.362-14.491
		c1.319-0.965,3.66-1.591,7.019-1.879l1.226-0.104c0.163,1.905,0.08,5.666-0.248,11.282c-0.328,5.616-0.463,8.849-0.406,9.695
		c0.057,0.849,0.222,1.261,0.495,1.237l2.154-1.016L136,71.833c-0.795,1.051-1.986,2.09-3.575,3.121
		c-1.589,1.031-3.019,1.602-4.29,1.711c-1.877,0.16-3.132-0.799-3.767-2.877c-2.332,2.332-4.662,3.597-6.993,3.796
		c-1.453,0.124-2.574-0.324-3.362-1.344C113.225,75.22,112.755,73.819,112.604,72.042z"/>
	<path d="M138.964,32.68c-0.094-1.101-0.253-2.068-0.477-2.902c2.899-1.399,5.574-2.204,8.025-2.414
		c0.346,0.482,0.594,1.591,0.742,3.328c0.265,3.092,0.09,9.078-0.523,17.959c2.269-1.985,4.334-3.058,6.196-3.217
		c1.862-0.159,3.329,0.25,4.404,1.224c1.073,0.975,1.692,2.415,1.855,4.32c0.315,3.684-1.413,6.476-5.184,8.376
		c1.468,5.762,2.656,8.603,3.564,8.524l2.108-1.013l1.265,3.027c-0.685,0.913-1.775,1.88-3.273,2.903
		c-1.498,1.024-2.973,1.598-4.426,1.722c-1.453,0.125-2.623-0.543-3.509-2.004c-0.888-1.459-1.542-3.407-1.963-5.846
		c-0.422-2.438-0.763-5.181-1.023-8.23c1.41-0.631,2.497-1.461,3.263-2.485c0.766-1.026,1.108-2.015,1.027-2.967
		c-0.082-0.953-0.486-1.398-1.212-1.337c-0.576,0.05-1.229,0.34-1.961,0.872s-1.261,1.024-1.588,1.479
		c-0.81,9.794-1.075,16.322-0.796,19.582c-2.269,0.92-5.008,1.516-8.216,1.79c-0.06-0.337-0.108-0.737-0.148-1.203
		c-0.188-2.201,0.153-8.725,1.026-19.569C139.011,43.755,139.287,36.45,138.964,32.68z"/>
	<path d="M163.39,30.593c-0.094-1.101-0.253-2.068-0.477-2.902c2.899-1.399,5.574-2.204,8.025-2.414
		c0.346,0.482,0.594,1.592,0.742,3.328c0.264,3.091,0.09,9.077-0.523,17.958c2.269-1.985,4.334-3.057,6.196-3.217
		c1.861-0.159,3.329,0.25,4.403,1.224c1.074,0.975,1.693,2.415,1.855,4.32c0.315,3.684-1.413,6.477-5.184,8.376
		c1.468,5.762,2.656,8.604,3.564,8.525l2.109-1.013l1.265,3.027c-0.685,0.912-1.776,1.88-3.273,2.903
		c-1.498,1.023-2.973,1.598-4.426,1.722c-1.453,0.124-2.624-0.544-3.51-2.004c-0.887-1.46-1.542-3.407-1.963-5.847
		c-0.422-2.437-0.763-5.18-1.023-8.229c1.409-0.633,2.497-1.462,3.263-2.486c0.766-1.026,1.108-2.015,1.027-2.967
		c-0.082-0.953-0.486-1.398-1.212-1.336c-0.575,0.049-1.229,0.34-1.961,0.872c-0.732,0.532-1.261,1.026-1.588,1.479
		c-0.81,9.795-1.075,16.322-0.796,19.582c-2.27,0.92-5.008,1.516-8.216,1.79c-0.06-0.336-0.108-0.736-0.148-1.202
		c-0.188-2.201,0.153-8.725,1.026-19.57C163.437,41.668,163.712,34.362,163.39,30.593z"/>
	<path d="M186.06,65.764c-0.152-1.778-0.001-4.744,0.452-8.899c0.452-4.154,0.641-6.687,0.562-7.598
		c-0.078-0.91-0.738-2.208-1.979-3.894l0.01-0.96c2.681-1.082,5.869-1.781,9.562-2.097c0.311,0.784,0.533,1.96,0.667,3.526
		c0.134,1.567-0.03,4.557-0.492,8.967c-0.462,4.412-0.665,6.935-0.61,7.569c0.105,1.229,0.535,1.811,1.292,1.746
		c0.514-0.045,1.141-0.375,1.881-0.993c0.033-0.685,0.154-2.486,0.361-5.405c0.513-6.484,0.634-11.314,0.362-14.491
		c1.32-0.965,3.66-1.592,7.02-1.879l1.226-0.105c0.163,1.905,0.08,5.667-0.248,11.281c-0.329,5.617-0.464,8.849-0.406,9.695
		c0.057,0.85,0.222,1.262,0.495,1.238l2.154-1.016l1.089,3.105c-0.795,1.05-1.987,2.09-3.575,3.121
		c-1.589,1.031-3.019,1.602-4.291,1.71c-1.877,0.161-3.132-0.798-3.767-2.877c-2.331,2.333-4.662,3.597-6.992,3.796
		c-1.453,0.125-2.574-0.323-3.362-1.344C186.681,68.942,186.212,67.542,186.06,65.764z"/>
	<path d="M219.28,67.596c-1.502,0.981-2.896,1.526-4.183,1.637s-2.382-0.319-3.288-1.286c-0.906-0.967-1.442-2.426-1.608-4.373
		s0.133-7.443,0.9-16.488c0.767-9.044,0.965-15.726,0.596-20.045c-0.08-0.931-0.271-2.109-0.576-3.534
		c2.75-1.344,5.458-2.13,8.122-2.357c0.331,0.654,0.561,1.744,0.691,3.268c0.246,2.88,0.018,9.223-0.683,19.029
		c-0.702,9.808-0.989,15.451-0.862,16.933c0.126,1.482,0.372,2.207,0.734,2.177c0.303-0.026,0.93-0.356,1.882-0.993l0.473-0.359
		l1.355,3.02C221.965,65.489,220.781,66.614,219.28,67.596z"/>
	<path d="M224.15,62.509c-0.152-1.778-0.001-4.744,0.452-8.9c0.452-4.154,0.64-6.686,0.562-7.597
		c-0.078-0.91-0.738-2.208-1.979-3.894l0.01-0.96c2.682-1.082,5.868-1.781,9.562-2.097c0.311,0.785,0.533,1.96,0.667,3.526
		c0.134,1.567-0.03,4.556-0.491,8.967c-0.461,4.412-0.665,6.935-0.611,7.569c0.105,1.229,0.536,1.81,1.293,1.745
		c0.515-0.044,1.141-0.374,1.882-0.992c0.032-0.685,0.153-2.486,0.361-5.406c0.513-6.483,0.634-11.313,0.362-14.49
		c1.32-0.965,3.659-1.592,7.02-1.879l1.226-0.105c0.163,1.906,0.08,5.667-0.248,11.282s-0.464,8.848-0.405,9.695
		c0.057,0.849,0.221,1.261,0.494,1.237l2.154-1.016l1.088,3.106c-0.795,1.05-1.986,2.09-3.574,3.12
		c-1.59,1.032-3.02,1.602-4.29,1.711c-1.877,0.16-3.132-0.799-3.768-2.877c-2.331,2.332-4.663,3.598-6.993,3.797
		c-1.452,0.123-2.573-0.324-3.361-1.344C224.771,65.687,224.302,64.287,224.15,62.509z"/>
	<path d="M250.512,23.147c-0.094-1.101-0.254-2.068-0.477-2.902c2.898-1.399,5.574-2.204,8.025-2.414
		c0.346,0.482,0.593,1.591,0.741,3.328c0.265,3.092,0.09,9.078-0.522,17.959c2.269-1.985,4.334-3.058,6.195-3.217
		c1.861-0.159,3.329,0.25,4.403,1.224c1.073,0.975,1.692,2.415,1.856,4.32c0.314,3.684-1.414,6.477-5.184,8.376
		c1.467,5.762,2.655,8.603,3.562,8.525l2.109-1.013l1.265,3.027c-0.685,0.912-1.775,1.88-3.272,2.903
		c-1.498,1.023-2.974,1.598-4.426,1.722c-1.453,0.124-2.624-0.544-3.511-2.004s-1.542-3.407-1.963-5.847
		c-0.421-2.437-0.763-5.181-1.023-8.229c1.409-0.632,2.497-1.461,3.263-2.486c0.766-1.026,1.109-2.014,1.027-2.967
		c-0.082-0.953-0.485-1.398-1.211-1.336c-0.576,0.049-1.229,0.34-1.961,0.872c-0.732,0.532-1.262,1.025-1.589,1.479
		c-0.81,9.793-1.075,16.322-0.796,19.582c-2.27,0.92-5.008,1.516-8.217,1.79c-0.059-0.336-0.107-0.736-0.148-1.202
		c-0.188-2.201,0.154-8.725,1.026-19.57C250.559,34.223,250.834,26.917,250.512,23.147z"/>
	<path d="M277.749,64.135c-1.302,0.111-2.341-0.271-3.116-1.142s-1.232-2.112-1.37-3.722c-0.138-1.608,0.212-3.058,1.047-4.345
		s1.911-1.986,3.228-2.099s2.373,0.299,3.17,1.232c0.796,0.935,1.261,2.186,1.395,3.752c0.135,1.566-0.232,2.985-1.1,4.253
		S279.051,64.023,277.749,64.135z M283.439,19.949c0.264,3.091-0.02,8.245-0.852,15.46c-0.832,7.216-1.5,11.613-2.005,13.192
		c-0.898,0.547-1.771,0.855-2.618,0.927c-0.849,0.073-1.582,0.05-2.201-0.067c-0.101-10.441-0.4-18.584-0.898-24.428l-0.745-5.503
		c3.206-1.724,6.02-2.689,8.441-2.896C283.013,17.278,283.305,18.383,283.439,19.949z"/>
	<path d="M289.589,62.483l-0.771,0.065c-0.225-2.625-0.133-6.644,0.273-12.052c0.407-5.409,0.575-8.516,0.507-9.321
		c-0.068-0.804-0.271-1.576-0.609-2.315s-0.658-1.288-0.964-1.645l-0.457-0.537l0.009-0.96c1.717-0.957,4.801-1.626,9.25-2.006
		c0.385,0.949,0.685,1.947,0.896,2.995c2.552-2.606,4.766-3.991,6.643-4.151c1.271-0.109,2.319,0.389,3.146,1.491
		c0.826,1.103,1.309,2.47,1.448,4.099c0.14,1.631,0.028,4.274-0.329,7.93c-0.357,3.657-0.49,6.024-0.398,7.104
		c0.092,1.079,0.244,1.609,0.455,1.592l2.331-1.095l1.089,3.106c-0.882,1.098-2.057,2.148-3.527,3.148
		c-1.469,0.999-2.855,1.555-4.156,1.666c-2.603,0.223-4.062-1.529-4.381-5.256c-0.139-1.608-0.045-4.261,0.279-7.957
		c0.324-3.695,0.448-5.999,0.37-6.91c-0.077-0.91-0.329-1.347-0.753-1.311c-0.544,0.046-1.234,0.532-2.07,1.456
		c-0.057,0.773-0.201,2.641-0.436,5.604c-0.444,6.223-0.55,10.69-0.318,13.399C295.699,61.556,293.19,62.175,289.589,62.483z"/>
	<path d="M322.11,58.808c-1.502,0.981-2.896,1.527-4.183,1.637c-1.287,0.11-2.382-0.318-3.287-1.285
		c-0.907-0.969-1.443-2.426-1.609-4.374c-0.166-1.947,0.134-7.443,0.9-16.488c0.768-9.044,0.966-15.726,0.597-20.045
		c-0.079-0.931-0.271-2.109-0.576-3.534c2.75-1.343,5.458-2.13,8.121-2.357c0.331,0.654,0.562,1.744,0.691,3.268
		c0.246,2.88,0.017,9.223-0.683,19.029c-0.703,9.807-0.99,15.451-0.863,16.932c0.127,1.483,0.371,2.208,0.735,2.177
		c0.302-0.025,0.93-0.355,1.881-0.992l0.473-0.361l1.355,3.02C324.795,56.702,323.611,57.827,322.11,58.808z"/>
</g>
<g>
	<g>
		<path d="M219,77.735c-0.413,0.038-0.733,0.438-0.96,1.197c-0.226,0.76-0.305,1.513-0.237,2.26c0.149,1.641,0.697,2.417,1.644,2.33
			c0.6-0.055,1.254-0.403,1.962-1.045l0.72,0.821c-0.504,0.663-1.13,1.205-1.878,1.622c-0.749,0.418-1.509,0.662-2.283,0.732
			c-1.04,0.096-1.912-0.145-2.617-0.719c-0.704-0.574-1.114-1.502-1.231-2.781c-0.141-1.547,0.22-2.856,1.083-3.931
			c0.863-1.073,2.068-1.681,3.615-1.821c1-0.092,1.805,0.041,2.415,0.395c0.611,0.355,0.944,0.842,1.001,1.462
			c0.056,0.62-0.082,1.173-0.414,1.661c-0.439,0.039-0.924,0-1.452-0.12c-0.529-0.12-0.958-0.292-1.287-0.518l0.163-1.528
			C219.162,77.734,219.08,77.729,219,77.735z"/>
		<path d="M223.077,83.312c-0.051-0.56,0.042-1.499,0.277-2.817c0.236-1.32,0.341-2.121,0.315-2.408s-0.305-0.688-0.835-1.205
			l0.013-0.303c1.188-0.379,2.597-0.641,4.223-0.789c0.129,0.244,0.217,0.613,0.262,1.105c0.045,0.494-0.053,1.439-0.295,2.84
			s-0.354,2.201-0.336,2.4c0.035,0.387,0.219,0.564,0.553,0.535c0.227-0.021,0.505-0.135,0.836-0.339
			c0.021-0.217,0.09-0.788,0.207-1.714c0.283-2.055,0.379-3.582,0.288-4.582c0.589-0.322,1.624-0.552,3.103-0.687l0.541-0.05
			c0.055,0.601-0.016,1.789-0.209,3.568c-0.195,1.779-0.283,2.803-0.266,3.069s0.086,0.396,0.207,0.384l0.956-0.349l0.451,0.967
			c-0.358,0.343-0.894,0.687-1.601,1.033s-1.341,0.546-1.9,0.597c-0.828,0.076-1.371-0.211-1.632-0.859
			c-1.046,0.768-2.083,1.198-3.108,1.292c-0.641,0.058-1.129-0.069-1.467-0.382C223.323,84.31,223.128,83.872,223.077,83.312z"/>
		<path d="M237.669,83.455c-0.669,0.331-1.286,0.521-1.853,0.573c-0.567,0.051-1.045-0.07-1.436-0.364
			c-0.39-0.294-0.612-0.747-0.668-1.36c-0.057-0.613,0.125-2.354,0.543-5.221c0.417-2.869,0.564-4.982,0.439-6.342
			c-0.026-0.295-0.1-0.664-0.222-1.109c1.222-0.461,2.419-0.746,3.593-0.853c0.139,0.202,0.23,0.544,0.275,1.024
			c0.082,0.906-0.075,2.913-0.471,6.021c-0.396,3.107-0.572,4.895-0.529,5.361s0.143,0.692,0.303,0.678
			c0.134-0.012,0.412-0.125,0.837-0.338l0.211-0.12l0.569,0.936C238.869,82.754,238.338,83.126,237.669,83.455z"/>
		<path d="M243.999,75.468c0.054,0.594-0.03,1.522-0.251,2.786c-0.221,1.263-0.313,2.082-0.279,2.455
			c0.034,0.372,0.123,0.553,0.271,0.54c0.147-0.014,0.407-0.104,0.782-0.273l0.172-0.097l0.451,0.968
			c-0.422,0.388-0.957,0.746-1.605,1.073c-0.648,0.329-1.248,0.518-1.793,0.567c-0.547,0.05-0.991-0.064-1.332-0.343
			c-0.342-0.277-0.539-0.706-0.592-1.287c-0.053-0.58,0.03-1.481,0.248-2.704s0.312-1.995,0.283-2.314
			c-0.046-0.494-0.262-0.944-0.648-1.354l-0.18-0.205l0.029-0.346c0.674-0.275,2.01-0.506,4.011-0.688
			C243.801,74.468,243.945,74.875,243.999,75.468z M242.254,72.794c-0.607,0.055-1.096-0.061-1.465-0.351
			c-0.368-0.288-0.576-0.684-0.621-1.184c-0.047-0.5,0.125-0.938,0.516-1.317c0.389-0.378,0.883-0.595,1.482-0.649
			s1.079,0.043,1.438,0.293c0.358,0.249,0.562,0.627,0.606,1.134c0.047,0.507-0.116,0.966-0.488,1.375
			C243.35,72.505,242.86,72.738,242.254,72.794z"/>
		<path d="M246.354,82.946l-0.34,0.031c-0.075-0.826,0.001-2.098,0.229-3.812c0.227-1.715,0.328-2.698,0.305-2.951
			c-0.022-0.254-0.105-0.494-0.247-0.724s-0.278-0.398-0.409-0.507l-0.196-0.164l0.013-0.304c0.764-0.324,2.125-0.577,4.086-0.755
			c0.16,0.295,0.283,0.605,0.367,0.934c1.145-0.856,2.13-1.322,2.957-1.398c0.561-0.051,1.017,0.094,1.37,0.43
			c0.354,0.338,0.554,0.764,0.601,1.277c0.047,0.513-0.025,1.35-0.215,2.509c-0.19,1.161-0.27,1.91-0.238,2.249
			c0.03,0.341,0.092,0.507,0.186,0.498l1.035-0.377l0.451,0.968c-0.398,0.358-0.924,0.706-1.58,1.041
			c-0.654,0.335-1.269,0.529-1.842,0.581c-1.146,0.105-1.773-0.429-1.881-1.604c-0.046-0.506,0.02-1.346,0.195-2.518
			s0.249-1.9,0.223-2.188c-0.025-0.287-0.133-0.422-0.318-0.404c-0.24,0.021-0.548,0.184-0.924,0.486
			c-0.031,0.246-0.112,0.838-0.24,1.777c-0.252,1.972-0.338,3.385-0.26,4.238C249.049,82.573,247.94,82.802,246.354,82.946z"/>
		<path d="M265.564,76.023c-0.091,1.212-0.115,2.054-0.072,2.526c0.043,0.475,0.139,0.703,0.285,0.69l0.975-0.371l0.451,0.968
			c-0.396,0.371-0.912,0.725-1.547,1.059c-0.636,0.333-1.206,0.523-1.713,0.569c-0.867,0.079-1.447-0.245-1.742-0.972
			c-0.985,0.844-1.881,1.302-2.688,1.375c-0.807,0.074-1.457-0.163-1.949-0.709c-0.494-0.547-0.791-1.367-0.891-2.461
			c-0.137-1.506,0.129-2.867,0.797-4.084c0.67-1.218,1.637-1.885,2.904-2c0.692-0.062,1.416,0.066,2.172,0.387
			c0.085-0.249,0.156-0.43,0.213-0.543c0.96-0.088,2.041,0.049,3.244,0.41C265.803,73.761,265.656,74.812,265.564,76.023z
			 M260.411,78.106c0.062,0.673,0.146,1.093,0.255,1.258c0.109,0.164,0.291,0.234,0.545,0.211c0.252-0.022,0.49-0.145,0.712-0.366
			c-0.087-1.552,0.019-3.194,0.317-4.929c-0.211-0.103-0.446-0.141-0.707-0.117c-0.26,0.023-0.479,0.191-0.659,0.504
			c-0.181,0.312-0.304,0.692-0.37,1.143C260.381,76.667,260.35,77.433,260.411,78.106z"/>
		<path d="M271.696,72.944c0.054,0.594-0.029,1.521-0.25,2.785c-0.222,1.264-0.313,2.082-0.28,2.456
			c0.033,0.372,0.124,0.552,0.271,0.539c0.147-0.013,0.407-0.104,0.782-0.272l0.172-0.098l0.451,0.969
			c-0.422,0.387-0.957,0.745-1.605,1.073s-1.247,0.518-1.793,0.567c-0.547,0.05-0.991-0.064-1.332-0.343
			c-0.342-0.278-0.539-0.707-0.592-1.288c-0.053-0.579,0.029-1.48,0.248-2.704c0.218-1.222,0.312-1.994,0.283-2.314
			c-0.045-0.493-0.261-0.944-0.648-1.353l-0.18-0.205l0.029-0.346c0.674-0.275,2.01-0.506,4.011-0.688
			C271.498,71.944,271.643,72.352,271.696,72.944z M269.951,70.27c-0.607,0.056-1.096-0.062-1.465-0.35
			c-0.369-0.289-0.576-0.685-0.621-1.185c-0.047-0.499,0.125-0.938,0.516-1.316c0.389-0.379,0.883-0.595,1.482-0.65
			c0.6-0.055,1.079,0.043,1.438,0.293c0.358,0.25,0.562,0.628,0.607,1.135c0.046,0.506-0.117,0.965-0.489,1.375
			C271.047,69.981,270.557,70.215,269.951,70.27z"/>
		<path d="M273.991,80.428l-0.159,0.015c-0.058-0.182-0.104-0.472-0.14-0.864s0.034-1.425,0.212-3.095s0.256-2.617,0.234-2.844
			c-0.039-0.428-0.255-0.811-0.648-1.152l-0.199-0.182l0.014-0.305c0.777-0.326,2.092-0.574,3.945-0.742
			c0.203,0.316,0.346,0.701,0.427,1.15c0.718-0.979,1.376-1.497,1.976-1.552c0.453-0.041,0.811,0.085,1.073,0.377
			c0.262,0.292,0.446,0.796,0.552,1.513c-0.059,0.099-0.141,0.224-0.248,0.375s-0.35,0.368-0.729,0.65
			c-0.377,0.284-0.783,0.473-1.219,0.565c-0.014,0.001-0.116-0.138-0.309-0.415c-0.195-0.278-0.338-0.414-0.431-0.404
			c-0.094,0.008-0.302,0.162-0.624,0.46l-0.116,1.16c-0.213,1.941-0.29,3.239-0.229,3.892l0.088,0.739
			C276.895,80.05,275.738,80.269,273.991,80.428z"/>
		<path d="M280.91,76.026c-0.15-1.652,0.235-2.985,1.158-3.998c0.922-1.011,2.124-1.584,3.604-1.719
			c1.027-0.094,1.871,0.055,2.531,0.444c0.661,0.392,1.025,0.959,1.094,1.706c0.047,0.52-0.077,1.008-0.371,1.465
			c-0.295,0.458-0.671,0.82-1.131,1.091c-0.918,0.542-1.772,0.901-2.562,1.081l-0.492,0.125c0.226,0.867,0.706,1.267,1.439,1.199
			c0.32-0.029,0.666-0.131,1.041-0.307c0.373-0.174,0.667-0.346,0.881-0.513l0.322-0.231l0.718,0.802l-0.2,0.24
			c-0.073,0.087-0.248,0.263-0.527,0.521c-0.279,0.261-0.573,0.493-0.885,0.696c-0.311,0.203-0.713,0.397-1.207,0.584
			c-0.494,0.186-0.994,0.303-1.5,0.348c-1.134,0.104-2.041-0.146-2.721-0.75S281.024,77.28,280.91,76.026z M285.611,73.854
			c0.334-0.614,0.484-1.118,0.447-1.513c-0.035-0.393-0.166-0.58-0.393-0.559c-0.334,0.029-0.616,0.318-0.85,0.863
			c-0.232,0.546-0.324,1.301-0.277,2.264C284.921,74.821,285.279,74.47,285.611,73.854z"/>
		<path d="M300.324,76.636c-0.776,1.08-1.744,1.673-2.904,1.778c-1.159,0.106-2.076-0.14-2.748-0.737
			c-0.674-0.598-1.062-1.47-1.166-2.617c-0.14-1.531,0.17-2.848,0.932-3.945c0.759-1.098,1.893-1.715,3.399-1.853l0.808,0.007
			c0.311-0.121,0.613-0.197,0.906-0.225c1.187-0.107,1.9,0.708,2.139,2.447c0.559-0.077,1.083-0.212,1.576-0.405l0.273-0.104
			c0.102,0.084,0.193,0.357,0.276,0.82l0.04,0.218c-0.572,0.362-1.283,0.669-2.135,0.921
			C301.564,74.326,301.1,75.558,300.324,76.636z M297.236,74.397c0.121,1.334,0.495,1.972,1.122,1.914
			c0.44-0.04,0.864-0.359,1.272-0.962c0.409-0.603,0.664-1.311,0.766-2.127c-1.361,0.124-2.1-0.467-2.219-1.774
			c-0.021-0.227-0.022-0.461-0.004-0.705c-0.134,0.012-0.232,0.041-0.295,0.088c-0.206,0.246-0.379,0.754-0.517,1.519
			C297.223,73.115,297.182,73.798,297.236,74.397z"/>
		<path d="M303.39,77.749l-0.341,0.031c-0.075-0.826,0.001-2.098,0.229-3.812c0.227-1.714,0.328-2.698,0.306-2.951
			c-0.023-0.254-0.106-0.494-0.248-0.724s-0.278-0.397-0.409-0.507l-0.196-0.163l0.013-0.304c0.764-0.326,2.125-0.578,4.086-0.756
			c0.16,0.295,0.283,0.605,0.367,0.934c1.145-0.856,2.13-1.322,2.957-1.398c0.561-0.051,1.017,0.094,1.37,0.43
			c0.354,0.338,0.554,0.764,0.601,1.277s-0.025,1.35-0.215,2.509c-0.19,1.161-0.27,1.911-0.238,2.249
			c0.03,0.342,0.092,0.508,0.186,0.498l1.035-0.376l0.451,0.968c-0.398,0.357-0.924,0.705-1.58,1.041
			c-0.654,0.335-1.269,0.529-1.842,0.58c-1.146,0.105-1.773-0.429-1.88-1.603c-0.047-0.507,0.019-1.347,0.194-2.519
			s0.25-1.9,0.223-2.188c-0.025-0.287-0.133-0.421-0.318-0.404c-0.24,0.021-0.548,0.185-0.924,0.487
			c-0.031,0.245-0.112,0.837-0.241,1.776c-0.251,1.973-0.337,3.385-0.259,4.238C306.084,77.376,304.976,77.604,303.39,77.749z"/>
		<path d="M320.211,68.958l-1.771,0.02c-0.346,2.854-0.49,4.575-0.438,5.162c0.024,0.266,0.104,0.394,0.237,0.381
			c0.212-0.02,0.568-0.172,1.065-0.459l0.568,0.915c-0.416,0.454-0.932,0.838-1.549,1.149c-0.617,0.311-1.226,0.495-1.826,0.55
			c-0.599,0.055-1.097-0.062-1.492-0.349c-0.396-0.286-0.621-0.719-0.674-1.299s0.023-1.521,0.227-2.824
			c0.204-1.302,0.326-2.244,0.368-2.826c-0.199,0.032-0.648,0.12-1.348,0.265c-0.079-0.275-0.129-0.537-0.151-0.784
			c-0.022-0.246-0.015-0.525,0.023-0.838l1.541-0.141c-0.014-0.725-0.034-1.26-0.066-1.607c-0.031-0.346-0.074-0.664-0.127-0.956
			c1.254-0.545,2.467-0.87,3.641-0.978c0.115,0.246,0.195,0.588,0.235,1.027c0.04,0.441,0.006,1.17-0.104,2.188l1.841-0.168
			C320.461,67.933,320.395,68.456,320.211,68.958z"/>
		<path d="M327.738,75.651c-0.812,0.074-1.377-0.197-1.688-0.813c-0.928,0.729-1.799,1.132-2.612,1.206s-1.485-0.145-2.016-0.654
			c-0.53-0.508-0.851-1.364-0.96-2.564c-0.145-1.6,0.139-2.977,0.854-4.131c0.715-1.152,1.699-1.788,2.953-1.902
			c0.641-0.059,1.272,0.025,1.898,0.251c0.205-2.034,0.254-3.626,0.148-4.772c-0.032-0.359-0.09-0.689-0.17-0.992
			c1.208-0.459,2.393-0.743,3.553-0.849c0.137,0.176,0.236,0.61,0.299,1.304c0.063,0.693-0.046,2.508-0.33,5.444
			c-0.283,2.937-0.396,4.715-0.341,5.335s0.172,0.922,0.345,0.906l0.854-0.361l0.434,0.99
			C329.865,75.021,328.791,75.556,327.738,75.651z M324.953,73.868c0.229-0.02,0.48-0.123,0.758-0.311l-0.001-0.02
			c-0.075-0.827,0.03-2.551,0.315-5.172c-0.3-0.053-0.512-0.074-0.631-0.063c-0.493,0.045-0.834,0.517-1.021,1.414
			c-0.188,0.897-0.236,1.823-0.149,2.776C324.311,73.446,324.555,73.905,324.953,73.868z"/>
		<path d="M330.986,71.464c-0.15-1.653,0.234-2.986,1.158-3.998c0.922-1.012,2.123-1.584,3.604-1.72
			c1.026-0.093,1.871,0.056,2.531,0.444c0.66,0.392,1.024,0.96,1.092,1.707c0.048,0.52-0.075,1.008-0.37,1.465
			c-0.294,0.457-0.671,0.82-1.13,1.091c-0.918,0.542-1.773,0.901-2.562,1.081l-0.493,0.125c0.226,0.867,0.706,1.266,1.44,1.199
			c0.319-0.029,0.666-0.131,1.04-0.307c0.374-0.174,0.668-0.346,0.882-0.514l0.32-0.23l0.719,0.802l-0.2,0.239
			c-0.072,0.088-0.249,0.263-0.526,0.521c-0.279,0.262-0.573,0.494-0.885,0.697c-0.311,0.203-0.713,0.396-1.207,0.584
			c-0.494,0.186-0.994,0.302-1.5,0.348c-1.135,0.104-2.041-0.146-2.721-0.75C331.497,73.646,331.102,72.718,330.986,71.464z
			 M335.688,69.291c0.334-0.614,0.483-1.119,0.447-1.513c-0.036-0.393-0.166-0.58-0.393-0.56c-0.334,0.03-0.617,0.319-0.85,0.864
			s-0.326,1.3-0.277,2.264C334.996,70.258,335.354,69.907,335.688,69.291z"/>
		<path d="M341.15,60.858c-0.031-0.347-0.092-0.65-0.184-0.91c1.287-0.48,2.471-0.771,3.549-0.869
			c0.149,0.148,0.248,0.496,0.298,1.042c0.089,0.974-0.041,2.867-0.39,5.682c1.016-0.657,1.934-1.022,2.753-1.098
			c0.821-0.075,1.462,0.035,1.927,0.329c0.463,0.293,0.722,0.74,0.776,1.341c0.106,1.159-0.679,2.065-2.353,2.714
			c0.594,1.803,1.091,2.685,1.49,2.648l0.938-0.349l0.529,0.94c-0.311,0.297-0.799,0.617-1.467,0.96
			c-0.666,0.343-1.321,0.544-1.961,0.603c-0.641,0.059-1.148-0.138-1.525-0.588c-0.377-0.449-0.648-1.056-0.811-1.82
			c-0.165-0.765-0.29-1.628-0.378-2.588c0.626-0.218,1.111-0.494,1.458-0.828c0.346-0.335,0.505-0.65,0.478-0.951
			c-0.027-0.3-0.202-0.436-0.521-0.406c-0.254,0.023-0.545,0.123-0.871,0.301s-0.564,0.341-0.711,0.488
			c-0.443,3.105-0.617,5.172-0.523,6.199c-1.007,0.32-2.217,0.544-3.631,0.672c-0.022-0.104-0.039-0.23-0.053-0.377
			c-0.063-0.693,0.145-2.76,0.624-6.197C341.073,64.358,341.259,62.046,341.15,60.858z"/>
		<path d="M351.91,59.878c-0.032-0.347-0.094-0.65-0.185-0.91c1.288-0.481,2.472-0.771,3.552-0.869
			c0.146,0.148,0.246,0.496,0.296,1.043c0.089,0.973-0.042,2.866-0.39,5.682c1.015-0.658,1.932-1.023,2.753-1.099
			c0.819-0.075,1.462,0.035,1.925,0.329c0.464,0.294,0.724,0.74,0.778,1.341c0.105,1.159-0.679,2.065-2.354,2.715
			c0.595,1.801,1.092,2.684,1.492,2.647l0.936-0.349l0.529,0.94c-0.309,0.297-0.797,0.617-1.464,0.96
			c-0.669,0.343-1.322,0.544-1.963,0.603c-0.64,0.059-1.149-0.138-1.524-0.588c-0.378-0.449-0.648-1.057-0.812-1.82
			c-0.163-0.766-0.289-1.628-0.376-2.588c0.625-0.219,1.11-0.494,1.456-0.828s0.506-0.65,0.478-0.951
			c-0.026-0.3-0.2-0.436-0.521-0.406c-0.254,0.023-0.543,0.123-0.869,0.301c-0.327,0.179-0.564,0.342-0.713,0.489
			c-0.442,3.104-0.617,5.171-0.523,6.198c-1.006,0.32-2.216,0.544-3.629,0.672c-0.022-0.104-0.041-0.23-0.055-0.377
			c-0.063-0.693,0.146-2.759,0.625-6.197C351.831,63.378,352.018,61.065,351.91,59.878z"/>
		<path d="M365.709,64.378c0.054,0.594-0.029,1.522-0.25,2.785c-0.222,1.264-0.314,2.082-0.28,2.455
			c0.033,0.373,0.124,0.553,0.271,0.54s0.407-0.104,0.782-0.272l0.171-0.098l0.452,0.969c-0.423,0.387-0.956,0.745-1.604,1.072
			c-0.65,0.33-1.248,0.518-1.795,0.568c-0.546,0.049-0.99-0.064-1.331-0.343c-0.343-0.278-0.539-0.707-0.593-1.288
			c-0.053-0.579,0.03-1.48,0.248-2.704c0.219-1.222,0.312-1.995,0.283-2.314c-0.045-0.493-0.26-0.944-0.646-1.353l-0.182-0.205
			l0.029-0.346c0.674-0.275,2.012-0.506,4.011-0.688C365.51,63.378,365.654,63.785,365.709,64.378z M363.963,61.704
			c-0.607,0.055-1.095-0.062-1.464-0.351c-0.368-0.289-0.577-0.685-0.622-1.184c-0.046-0.5,0.126-0.939,0.515-1.317
			c0.39-0.379,0.884-0.595,1.484-0.649c0.599-0.055,1.079,0.042,1.438,0.292c0.358,0.25,0.561,0.627,0.607,1.135
			c0.045,0.506-0.117,0.966-0.49,1.375C365.059,61.415,364.569,61.648,363.963,61.704z"/>
		<path d="M368.064,71.856l-0.341,0.03c-0.075-0.825,0.001-2.097,0.228-3.812s0.328-2.699,0.306-2.951
			c-0.023-0.254-0.106-0.494-0.247-0.725c-0.142-0.229-0.279-0.397-0.41-0.506l-0.195-0.164l0.012-0.305
			c0.764-0.324,2.126-0.576,4.086-0.755c0.161,0.296,0.283,0.606,0.367,0.935c1.145-0.857,2.131-1.323,2.959-1.398
			c0.559-0.051,1.016,0.093,1.368,0.43c0.354,0.338,0.554,0.764,0.601,1.276c0.047,0.514-0.024,1.351-0.215,2.509
			c-0.189,1.161-0.269,1.911-0.237,2.25c0.03,0.341,0.092,0.507,0.187,0.498l1.033-0.377l0.452,0.967
			c-0.399,0.359-0.925,0.707-1.58,1.042c-0.653,0.335-1.269,0.529-1.841,0.581c-1.148,0.105-1.774-0.43-1.882-1.604
			c-0.046-0.506,0.019-1.346,0.194-2.518c0.176-1.173,0.25-1.901,0.223-2.188c-0.025-0.287-0.132-0.422-0.317-0.404
			c-0.24,0.021-0.548,0.184-0.924,0.486c-0.032,0.246-0.112,0.838-0.242,1.777c-0.249,1.971-0.337,3.385-0.259,4.238
			C370.758,71.483,369.65,71.712,368.064,71.856z"/>
		<path d="M383.654,69.448c-0.889,0.592-1.698,0.92-2.432,0.986c-0.732,0.066-1.369-0.167-1.908-0.703
			c-0.54-0.535-0.862-1.376-0.967-2.522c-0.14-1.534,0.162-2.838,0.903-3.913c0.741-1.077,1.694-1.668,2.853-1.773
			c0.561-0.051,1.208,0.045,1.943,0.287c0.803-0.328,1.73-0.541,2.785-0.637l0.34-0.031c0.079,0.127,0.139,0.421,0.182,0.881
			c0.041,0.461,0.04,1.371-0.004,2.732c-0.045,1.362-0.125,2.505-0.242,3.43c-0.238,1.957-0.758,3.545-1.562,4.76
			c-0.804,1.216-1.866,1.885-3.185,2.005c-0.668,0.061-1.222-0.037-1.661-0.292c-0.44-0.256-0.681-0.611-0.723-1.064
			c-0.041-0.453,0.034-0.84,0.228-1.16c0.193-0.319,0.486-0.598,0.881-0.836c0.675-0.41,1.517-0.776,2.522-1.097L383.654,69.448z
			 M381.905,73.499c0.253-0.023,0.53-0.177,0.835-0.459c0.303-0.284,0.536-0.723,0.697-1.314c-1.43,0.385-2.121,0.839-2.074,1.359
			C381.418,73.388,381.598,73.527,381.905,73.499z M383.172,63.059c-0.467,0.043-0.786,0.476-0.961,1.298
			c-0.174,0.822-0.217,1.701-0.133,2.633c0.086,0.934,0.348,1.381,0.787,1.341c0.201-0.019,0.473-0.138,0.815-0.356
			c0.001-1.748,0.022-3.363,0.062-4.846C383.535,63.065,383.345,63.043,383.172,63.059z"/>
		<path d="M388.222,66.249c-0.151-1.654,0.235-2.986,1.158-3.998c0.922-1.012,2.122-1.585,3.603-1.72
			c1.027-0.094,1.871,0.056,2.531,0.444c0.662,0.392,1.025,0.959,1.094,1.706c0.047,0.52-0.077,1.009-0.371,1.466
			c-0.293,0.457-0.67,0.82-1.131,1.09c-0.918,0.542-1.772,0.901-2.562,1.081l-0.492,0.126c0.227,0.866,0.705,1.266,1.439,1.199
			c0.32-0.029,0.666-0.131,1.041-0.307c0.374-0.174,0.667-0.347,0.881-0.514l0.322-0.23l0.718,0.801l-0.2,0.24
			c-0.072,0.087-0.248,0.262-0.527,0.521c-0.278,0.261-0.572,0.494-0.885,0.696c-0.311,0.203-0.713,0.397-1.207,0.584
			c-0.493,0.187-0.993,0.303-1.5,0.349c-1.133,0.104-2.041-0.147-2.721-0.75C388.732,68.43,388.336,67.502,388.222,66.249z
			 M392.924,64.075c0.333-0.614,0.482-1.118,0.446-1.512s-0.167-0.58-0.394-0.561c-0.334,0.031-0.617,0.32-0.85,0.864
			c-0.232,0.546-0.324,1.301-0.277,2.265C392.23,65.043,392.59,64.691,392.924,64.075z"/>
		<path d="M397.781,69.147l-0.341,0.031c-0.075-0.825,0.001-2.096,0.229-3.812c0.228-1.713,0.328-2.697,0.306-2.95
			c-0.023-0.254-0.105-0.494-0.248-0.724s-0.278-0.398-0.408-0.507l-0.197-0.164l0.014-0.304c0.762-0.324,2.124-0.576,4.084-0.756
			c0.16,0.295,0.283,0.607,0.368,0.935c1.145-0.856,2.131-1.323,2.957-1.398c0.561-0.051,1.017,0.093,1.37,0.429
			c0.354,0.34,0.553,0.764,0.6,1.277s-0.023,1.35-0.215,2.51c-0.189,1.16-0.269,1.91-0.238,2.25c0.031,0.34,0.094,0.506,0.188,0.497
			l1.034-0.376l0.451,0.967c-0.397,0.358-0.925,0.705-1.579,1.041c-0.655,0.335-1.27,0.529-1.843,0.582
			c-1.146,0.104-1.772-0.431-1.88-1.604c-0.046-0.508,0.02-1.347,0.194-2.519c0.176-1.173,0.249-1.901,0.224-2.188
			c-0.026-0.287-0.133-0.422-0.318-0.404c-0.241,0.022-0.549,0.184-0.924,0.487c-0.031,0.244-0.113,0.836-0.242,1.775
			c-0.25,1.973-0.337,3.386-0.26,4.238C400.477,68.774,399.367,69.003,397.781,69.147z"/>
		<path fill="#FFFFFF" d="M416.037,53.913c-0.105-1.152-0.491-2.078-1.147-2.754l-0.943-0.97l-1.347,0.123
			c-1.359,0.124-2.852,0.525-4.559,1.227l-2.078,0.854l0.619,3.849c0.023,0.261,0.043,0.544,0.062,0.838
			c-0.717-0.324-1.514-0.48-2.357-0.403c-0.476,0.043-0.959,0.147-1.455,0.315l-0.012-0.021l-1.858,0.17
			c-2.292,0.209-3.854,0.515-4.917,0.961c-0.979-0.371-2.091-0.504-3.318-0.393c-1.358,0.124-2.574,0.512-3.639,1.15l-0.435-0.697
			l-2.079,0.189c-0.939,0.085-1.822,0.251-2.633,0.494c-0.736-0.158-1.428-0.206-2.094-0.146c-1.479,0.136-2.793,0.735-3.871,1.751
			c-0.923-0.797-2.117-1.185-3.406-1.066c-0.475,0.043-0.959,0.147-1.455,0.315l-0.012-0.021l-1.857,0.169
			c-0.958,0.088-1.781,0.193-2.501,0.316c0.022-0.261,0.023-0.525-0.001-0.791c-0.121-1.339-0.766-2.477-1.811-3.204
			c-0.921-0.64-2.035-0.904-3.314-0.788c-1.244,0.113-2.352,0.611-3.201,1.438c-1.004,0.974-1.488,2.255-1.365,3.608
			c0.016,0.165,0.044,0.325,0.075,0.484c-0.233-0.025-0.473-0.043-0.722-0.043c0.053-1.02,0.025-1.597-0.01-1.984
			c-0.071-0.786-0.264-1.93-1.105-2.779l-0.94-0.949l-1.331,0.121c-1.326,0.121-2.769,0.469-4.286,1.036l-2.565,0.982l0.88,2.603
			c0.001,0,0.022,0.071,0.038,0.237c0.025,0.28,0.037,0.829-0.04,1.872c-0.439-0.1-0.901-0.158-1.399-0.158
			c0.052-1.018,0.025-1.596-0.01-1.984c-0.078-0.859-0.277-1.953-1.119-2.793l-0.939-0.935l-1.319,0.12
			c-1.327,0.121-2.769,0.469-4.284,1.036l-2.531,0.999l0.846,2.584c0,0.002,0.023,0.072,0.038,0.239
			c0.026,0.296,0.037,0.892-0.053,2.046c-0.847-0.236-1.771-0.33-2.783-0.238c-0.971,0.09-1.864,0.318-2.687,0.671
			c0.066-1.184,0.051-1.745,0.017-2.117c-0.088-0.97-0.257-1.979-0.884-2.786l-0.951-1.225l-1.545,0.141
			c-1.408,0.129-2.856,0.473-4.303,1.021l-2.39,0.908l0.658,2.471c0.04,0.15,0.069,0.326,0.087,0.521
			c0.029,0.332,0.051,0.815,0.035,1.503c-0.446,0.07-0.871,0.188-1.279,0.342l-0.84,0.076c-0.088-0.492-0.223-0.927-0.405-1.316
			l-0.847-1.795l-1.976,0.18c-1.47,0.134-2.989,0.537-4.514,1.199l-2.065,0.898l0.312,1.699l-0.625,0.058
			c-0.449-0.091-0.912-0.139-1.396-0.095c-0.476,0.043-0.96,0.148-1.456,0.317l-0.013-0.022l-1.855,0.169
			c-2.224,0.202-3.758,0.498-4.817,0.923c-0.786-0.386-1.646-0.516-2.459-0.441c-0.362,0.033-0.729,0.103-1.097,0.209l-0.478-0.004
			l-0.14,0.012c-2.342,0.213-4.236,1.272-5.474,3.062c-0.193,0.278-0.36,0.568-0.515,0.864c-0.424-0.836-1.082-1.539-1.947-2.051
			c-1.182-0.697-2.604-0.975-4.229-0.826c-1.318,0.119-2.5,0.49-3.541,1.096c-0.725-0.426-1.567-0.631-2.479-0.548
			c-0.411,0.037-0.81,0.134-1.196,0.29l-1.207,0.109c-0.85,0.078-1.597,0.172-2.258,0.282c0.021-0.257,0.021-0.517-0.002-0.778
			c-0.123-1.337-0.766-2.475-1.812-3.203c-0.92-0.641-2.035-0.906-3.314-0.789c-1.242,0.113-2.35,0.611-3.199,1.438
			c-1.004,0.974-1.488,2.255-1.364,3.608c0.024,0.27,0.079,0.529,0.146,0.784c-0.941-0.161-1.842-0.219-2.685-0.143l-1.49,0.136
			c-0.3-0.014-0.599-0.006-0.896,0.021c-1.485,0.135-2.793,0.752-3.834,1.76c-0.926-0.805-2.127-1.197-3.424-1.078
			c-0.476,0.043-0.96,0.148-1.456,0.317l-0.013-0.022l-1.855,0.168c-0.957,0.088-1.78,0.193-2.5,0.317
			c0.021-0.261,0.023-0.525,0-0.792c-0.123-1.337-0.766-2.475-1.812-3.203c-0.92-0.64-2.035-0.904-3.314-0.789
			c-0.602,0.055-1.168,0.204-1.693,0.434l-0.753-1.098l-1.653,0.15c-1.42,0.13-2.878,0.473-4.334,1.022l-2.414,0.909l0.679,2.488
			c0.11,0.407,0.13,0.589,0.134,0.621c0.029,0.326,0.041,0.811,0.014,1.488l-0.456,0.042c-1.047,0.095-1.922,0.235-2.655,0.429
			l-0.085-0.16l-1.877,0.172c-1.825,0.166-3.449,0.473-4.825,0.91l-0.198,0.062c-0.944-0.349-2.025-0.473-3.229-0.362
			c-2.3,0.21-4.225,1.201-5.567,2.869c-1.316,1.638-1.903,3.7-1.697,5.963c0.188,2.062,0.949,3.65,2.263,4.722
			c1.278,1.042,2.891,1.507,4.665,1.345c1.165-0.106,2.311-0.47,3.405-1.079c0.19-0.106,0.369-0.227,0.55-0.344
			c0.691,0.484,1.727,0.906,3.204,0.771c0.878-0.08,1.751-0.313,2.608-0.698c0.642,0.24,1.363,0.336,2.132,0.267
			c0.915-0.083,1.861-0.369,2.893-0.874c0.118-0.059,0.222-0.117,0.334-0.176c0.812,0.418,1.737,0.598,2.722,0.508
			c0.914-0.083,1.873-0.371,2.85-0.854c0.133-0.064,0.254-0.137,0.381-0.205c0.65,0.354,1.541,0.623,2.7,0.518
			c0.47-0.042,0.952-0.145,1.441-0.297l0.004,0.044l3.163-0.288c1.811-0.165,3.115-0.436,4.065-0.848
			c0.713,0.322,1.548,0.457,2.466,0.375c0.932-0.086,1.899-0.383,2.876-0.883c0.236-0.121,0.458-0.242,0.671-0.368
			c0.902,0.519,1.955,0.749,3.081,0.646c0.761-0.068,1.515-0.292,2.275-0.678c0.651,0.247,1.382,0.346,2.154,0.275
			c0.889-0.082,1.796-0.37,2.773-0.883c0.048-0.025,0.087-0.055,0.134-0.081c0.642,0.324,1.496,0.562,2.593,0.462
			c0.661-0.061,1.347-0.234,2.046-0.514l0.061,0.2l2.441-0.223c2.207-0.2,3.543-0.481,4.469-0.94l1.793-0.887l-0.033-0.281
			c0.916,0.723,2.402,1.444,4.603,1.244c0.759-0.07,1.513-0.244,2.244-0.52c0.693-0.262,1.267-0.543,1.755-0.862
			c0.444-0.289,0.872-0.626,1.268-0.996c0.479-0.446,0.654-0.639,0.771-0.778l0.608-0.73c0.3,0.475,0.639,0.92,1.063,1.297
			c0.879,0.78,2.439,1.664,4.889,1.441c0.996-0.091,1.923-0.395,2.759-0.895l0.047,0.518l3.163-0.289
			c1.811-0.165,3.115-0.436,4.065-0.847c0.713,0.321,1.548,0.457,2.466,0.374c0.932-0.086,1.9-0.383,2.876-0.882
			c0.229-0.118,0.446-0.237,0.654-0.358c0.684,0.403,1.692,0.764,3.048,0.641c0.953-0.088,1.91-0.37,2.846-0.842
			c0.289-0.146,0.543-0.327,0.807-0.498c0.958,0.573,2.074,0.817,3.287,0.707c0.74-0.067,1.486-0.277,2.232-0.625
			c0.628,0.218,1.326,0.301,2.068,0.232c1.192-0.107,2.367-0.543,3.51-1.286c0.895,0.455,2.092,0.776,3.649,0.634
			c0.76-0.068,1.515-0.242,2.242-0.518c0.123-0.047,0.224-0.098,0.34-0.146l0.058,0.263l2.484-0.227
			c1.635-0.149,3.02-0.409,4.231-0.794l0.335-0.107c0.737,0.357,1.576,0.504,2.469,0.422c0.504-0.046,1.012-0.146,1.518-0.3
			l2.207-0.2c1.635-0.149,3.018-0.41,4.23-0.795l0.334-0.106c0.737,0.356,1.576,0.503,2.469,0.421c1-0.091,2.01-0.395,3.002-0.904
			c0.032-0.016,0.06-0.033,0.09-0.049c0.637,0.312,1.479,0.537,2.549,0.439c0.469-0.043,0.95-0.145,1.441-0.298l0.004,0.045
			l3.163-0.288c1.811-0.166,3.114-0.436,4.064-0.848c0.714,0.322,1.55,0.457,2.466,0.374c0.752-0.068,1.525-0.28,2.305-0.618
			c0.005,0.089-0.01,0.174-0.002,0.264c0.126,1.38,0.881,2.537,2.122,3.258c0.956,0.555,2.08,0.778,3.341,0.663
			c2.182-0.198,4.012-1.327,5.294-3.265c0.466-0.705,0.847-1.51,1.165-2.382c0.854,0.369,1.941,0.606,3.313,0.481
			c0.759-0.068,1.514-0.243,2.245-0.519c0.078-0.03,0.141-0.063,0.216-0.093l0.023,0.264l3.164-0.288
			c1.811-0.165,3.114-0.436,4.065-0.848c0.713,0.322,1.549,0.458,2.465,0.374c0.934-0.085,1.9-0.381,2.878-0.881
			c0.097-0.051,0.185-0.102,0.278-0.152c0.656,0.375,1.594,0.682,2.852,0.566c1.255-0.115,2.377-0.655,3.24-1.562
			c0.954-0.998,1.414-2.266,1.295-3.572c-0.065-0.725-0.277-1.388-0.626-1.969c0.233-0.669,0.536-1.846,1.003-4.336
			C415.978,56.98,416.152,55.177,416.037,53.913z"/>
	</g>
	<g>
		<path d="M218.234,75.978c-0.414,0.039-0.734,0.438-0.96,1.197c-0.227,0.76-0.306,1.514-0.238,2.26
			c0.149,1.641,0.697,2.417,1.644,2.33c0.6-0.054,1.253-0.402,1.961-1.045l0.72,0.822c-0.504,0.664-1.13,1.205-1.878,1.622
			c-0.749,0.417-1.51,0.662-2.282,0.732c-1.041,0.095-1.912-0.146-2.617-0.72s-1.115-1.501-1.231-2.781
			c-0.141-1.547,0.22-2.855,1.083-3.93c0.863-1.073,2.069-1.682,3.615-1.822c1-0.091,1.805,0.041,2.416,0.396
			c0.61,0.354,0.944,0.84,1,1.461c0.056,0.619-0.081,1.173-0.414,1.66c-0.439,0.04-0.924,0.001-1.452-0.119
			c-0.529-0.12-0.958-0.293-1.288-0.518l0.163-1.527C218.396,75.978,218.314,75.972,218.234,75.978z"/>
		<path d="M222.311,81.556c-0.051-0.56,0.042-1.5,0.278-2.818s0.341-2.121,0.315-2.408s-0.304-0.688-0.835-1.204l0.012-0.304
			c1.188-0.377,2.597-0.641,4.224-0.788c0.129,0.243,0.217,0.612,0.262,1.105s-0.054,1.439-0.296,2.839
			c-0.242,1.401-0.354,2.201-0.336,2.401c0.035,0.386,0.219,0.564,0.553,0.534c0.227-0.021,0.504-0.133,0.836-0.338
			c0.021-0.217,0.09-0.788,0.207-1.713c0.282-2.055,0.379-3.584,0.287-4.584c0.589-0.322,1.624-0.551,3.104-0.686l0.541-0.049
			c0.055,0.6-0.016,1.789-0.21,3.567s-0.282,2.802-0.265,3.069c0.018,0.267,0.086,0.395,0.206,0.384l0.956-0.349l0.451,0.967
			c-0.358,0.342-0.893,0.687-1.6,1.033s-1.342,0.546-1.9,0.597c-0.828,0.075-1.371-0.212-1.632-0.86
			c-1.046,0.768-2.083,1.199-3.109,1.292c-0.64,0.059-1.128-0.068-1.466-0.381C222.557,82.552,222.362,82.116,222.311,81.556z"/>
		<path d="M236.903,81.697c-0.669,0.331-1.286,0.521-1.854,0.573s-1.044-0.069-1.435-0.363c-0.39-0.295-0.612-0.748-0.668-1.361
			c-0.057-0.612,0.125-2.354,0.542-5.221c0.417-2.869,0.564-4.982,0.44-6.342c-0.027-0.294-0.1-0.664-0.223-1.109
			c1.223-0.461,2.42-0.746,3.593-0.852c0.14,0.203,0.231,0.543,0.275,1.023c0.083,0.906-0.074,2.913-0.47,6.021
			c-0.396,3.107-0.572,4.896-0.529,5.361c0.042,0.467,0.143,0.693,0.303,0.678c0.133-0.012,0.412-0.125,0.837-0.338l0.21-0.119
			l0.57,0.936C238.103,80.997,237.572,81.368,236.903,81.697z"/>
		<path d="M243.233,73.71c0.054,0.595-0.03,1.523-0.251,2.787s-0.313,2.082-0.279,2.455c0.033,0.373,0.123,0.553,0.27,0.539
			c0.147-0.014,0.408-0.104,0.783-0.272l0.172-0.097l0.451,0.967c-0.422,0.389-0.957,0.746-1.605,1.074
			c-0.649,0.328-1.248,0.518-1.794,0.566c-0.546,0.051-0.99-0.064-1.332-0.342c-0.341-0.277-0.538-0.707-0.591-1.287
			s0.029-1.482,0.248-2.705c0.217-1.223,0.312-1.994,0.282-2.314c-0.045-0.493-0.261-0.944-0.647-1.352l-0.18-0.206l0.029-0.345
			c0.674-0.277,2.01-0.507,4.01-0.689C243.034,72.71,243.18,73.118,243.233,73.71z M241.487,71.036
			c-0.606,0.056-1.095-0.061-1.464-0.35s-0.576-0.684-0.622-1.184s0.126-0.939,0.516-1.317c0.39-0.379,0.883-0.595,1.483-0.649
			c0.6-0.055,1.079,0.043,1.438,0.292c0.359,0.25,0.562,0.628,0.607,1.134c0.047,0.507-0.117,0.967-0.489,1.376
			C242.583,70.749,242.094,70.981,241.487,71.036z"/>
		<path d="M245.588,81.188l-0.34,0.031c-0.075-0.826,0-2.098,0.229-3.812c0.227-1.713,0.328-2.697,0.305-2.95
			c-0.023-0.255-0.105-0.495-0.247-0.724c-0.142-0.229-0.278-0.398-0.409-0.508l-0.196-0.163l0.013-0.304
			c0.764-0.324,2.125-0.578,4.085-0.756c0.161,0.295,0.283,0.606,0.367,0.934c1.146-0.855,2.131-1.322,2.958-1.397
			c0.56-0.052,1.017,0.093,1.369,0.429c0.354,0.339,0.555,0.764,0.601,1.277c0.047,0.514-0.024,1.35-0.215,2.51
			s-0.269,1.91-0.238,2.25c0.031,0.34,0.093,0.506,0.187,0.497l1.034-0.376l0.452,0.967c-0.398,0.358-0.925,0.705-1.58,1.041
			c-0.654,0.335-1.27,0.529-1.842,0.582c-1.146,0.104-1.773-0.431-1.881-1.604c-0.046-0.508,0.02-1.347,0.194-2.52
			c0.176-1.172,0.25-1.9,0.224-2.188c-0.025-0.287-0.133-0.421-0.318-0.404c-0.24,0.021-0.549,0.185-0.924,0.488
			c-0.031,0.244-0.112,0.836-0.242,1.775c-0.25,1.973-0.336,3.386-0.259,4.238C248.283,80.815,247.174,81.044,245.588,81.188z"/>
		<path d="M264.799,74.267c-0.091,1.211-0.115,2.054-0.072,2.527c0.043,0.473,0.139,0.703,0.285,0.689l0.974-0.371l0.452,0.967
			c-0.396,0.372-0.912,0.725-1.547,1.059c-0.636,0.333-1.206,0.523-1.713,0.57c-0.867,0.078-1.447-0.245-1.742-0.971
			c-0.985,0.842-1.881,1.301-2.688,1.373c-0.807,0.074-1.457-0.163-1.95-0.709c-0.493-0.547-0.79-1.366-0.89-2.46
			c-0.137-1.507,0.129-2.868,0.797-4.085c0.669-1.217,1.637-1.885,2.903-2c0.692-0.062,1.417,0.066,2.173,0.389
			c0.084-0.251,0.155-0.432,0.213-0.545c0.959-0.087,2.041,0.05,3.243,0.411C265.037,72.003,264.891,73.055,264.799,74.267z
			 M259.646,76.349c0.062,0.674,0.146,1.094,0.255,1.258s0.291,0.235,0.545,0.213c0.252-0.023,0.49-0.146,0.711-0.367
			c-0.087-1.553,0.02-3.195,0.318-4.93c-0.211-0.102-0.447-0.141-0.707-0.117s-0.48,0.192-0.66,0.504
			c-0.18,0.312-0.303,0.693-0.369,1.143C259.614,74.911,259.584,75.677,259.646,76.349z"/>
		<path d="M270.931,71.187c0.054,0.594-0.03,1.522-0.251,2.786s-0.314,2.082-0.279,2.456c0.033,0.371,0.123,0.553,0.271,0.539
			c0.146-0.014,0.407-0.104,0.782-0.272l0.172-0.097l0.451,0.967c-0.422,0.389-0.957,0.746-1.605,1.073
			c-0.649,0.329-1.248,0.518-1.795,0.567c-0.545,0.05-0.989-0.064-1.33-0.342c-0.342-0.277-0.539-0.707-0.592-1.288
			c-0.053-0.579,0.029-1.481,0.248-2.704c0.217-1.223,0.312-1.995,0.282-2.314c-0.045-0.494-0.261-0.944-0.647-1.353L266.457,71
			l0.029-0.347c0.674-0.275,2.01-0.505,4.01-0.688C270.731,70.187,270.876,70.595,270.931,71.187z M269.184,68.513
			c-0.606,0.056-1.094-0.061-1.463-0.351c-0.369-0.288-0.576-0.684-0.622-1.183c-0.046-0.5,0.126-0.939,0.515-1.318
			c0.391-0.378,0.884-0.595,1.484-0.648c0.6-0.055,1.079,0.042,1.438,0.292c0.359,0.249,0.562,0.627,0.607,1.134
			c0.047,0.507-0.117,0.966-0.488,1.375C270.28,68.225,269.791,68.458,269.184,68.513z"/>
		<path d="M273.226,78.67l-0.16,0.015c-0.058-0.182-0.103-0.471-0.14-0.863c-0.035-0.394,0.035-1.426,0.213-3.096
			c0.177-1.669,0.255-2.617,0.234-2.844c-0.039-0.427-0.256-0.811-0.648-1.15l-0.199-0.184l0.014-0.305
			c0.776-0.325,2.091-0.573,3.944-0.742c0.203,0.318,0.347,0.702,0.428,1.151c0.718-0.979,1.376-1.497,1.976-1.552
			c0.453-0.041,0.811,0.085,1.072,0.377c0.263,0.291,0.445,0.795,0.553,1.512c-0.06,0.1-0.142,0.225-0.249,0.375
			c-0.107,0.151-0.35,0.369-0.728,0.65c-0.377,0.284-0.783,0.473-1.219,0.566c-0.014,0-0.117-0.138-0.31-0.416
			c-0.194-0.277-0.337-0.413-0.43-0.404c-0.095,0.008-0.302,0.162-0.624,0.461l-0.116,1.16c-0.214,1.941-0.29,3.238-0.23,3.893
			l0.087,0.737C276.129,78.292,274.973,78.511,273.226,78.67z"/>
		<path d="M280.145,74.27c-0.15-1.653,0.234-2.986,1.158-3.997c0.922-1.012,2.124-1.586,3.604-1.721
			c1.027-0.094,1.871,0.056,2.531,0.445c0.661,0.391,1.024,0.959,1.094,1.705c0.047,0.52-0.077,1.008-0.371,1.466
			c-0.295,0.457-0.672,0.82-1.131,1.091c-0.919,0.541-1.773,0.9-2.562,1.08l-0.493,0.125c0.227,0.867,0.707,1.268,1.44,1.2
			c0.32-0.028,0.666-0.132,1.041-0.307c0.373-0.174,0.666-0.347,0.88-0.514l0.321-0.229l0.719,0.801l-0.2,0.239
			c-0.072,0.087-0.248,0.263-0.526,0.522c-0.279,0.26-0.574,0.493-0.885,0.695c-0.311,0.203-0.713,0.398-1.207,0.584
			c-0.494,0.187-0.994,0.303-1.5,0.35c-1.135,0.103-2.041-0.148-2.721-0.751C280.656,76.45,280.259,75.522,280.145,74.27z
			 M284.846,72.097c0.334-0.615,0.483-1.119,0.447-1.513c-0.035-0.394-0.167-0.58-0.394-0.56c-0.333,0.031-0.616,0.319-0.849,0.863
			c-0.232,0.547-0.325,1.301-0.277,2.265C284.154,73.063,284.513,72.712,284.846,72.097z"/>
		<path d="M299.558,74.88c-0.776,1.079-1.743,1.672-2.903,1.777s-2.076-0.141-2.749-0.738c-0.673-0.597-1.062-1.469-1.165-2.615
			c-0.141-1.533,0.17-2.85,0.93-3.947c0.761-1.098,1.895-1.715,3.4-1.852l0.808,0.006c0.312-0.121,0.614-0.197,0.907-0.224
			c1.187-0.108,1.9,0.708,2.139,2.447c0.558-0.077,1.083-0.212,1.576-0.405l0.273-0.105c0.102,0.084,0.193,0.359,0.275,0.82
			l0.041,0.219c-0.572,0.361-1.284,0.668-2.135,0.921C300.799,72.568,300.334,73.8,299.558,74.88z M296.471,72.641
			c0.121,1.333,0.494,1.971,1.121,1.913c0.44-0.039,0.865-0.359,1.273-0.961c0.409-0.603,0.664-1.312,0.765-2.128
			c-1.36,0.124-2.099-0.466-2.219-1.773c-0.021-0.227-0.022-0.462-0.004-0.706c-0.133,0.013-0.231,0.042-0.294,0.088
			c-0.207,0.248-0.379,0.754-0.518,1.52S296.415,72.04,296.471,72.641z"/>
		<path d="M302.623,75.991l-0.34,0.031c-0.075-0.826,0.001-2.097,0.229-3.812c0.227-1.714,0.328-2.698,0.305-2.951
			c-0.023-0.254-0.105-0.495-0.247-0.724c-0.142-0.229-0.278-0.398-0.409-0.508l-0.196-0.163l0.013-0.304
			c0.764-0.324,2.125-0.577,4.085-0.756c0.161,0.295,0.283,0.607,0.367,0.935c1.146-0.856,2.131-1.323,2.958-1.398
			c0.56-0.051,1.017,0.093,1.369,0.429c0.354,0.339,0.555,0.764,0.601,1.277c0.047,0.514-0.024,1.35-0.215,2.51
			s-0.269,1.91-0.238,2.25c0.031,0.34,0.093,0.506,0.187,0.498l1.034-0.377l0.452,0.967c-0.398,0.358-0.925,0.705-1.58,1.041
			c-0.654,0.335-1.27,0.529-1.842,0.582c-1.146,0.104-1.773-0.43-1.881-1.604c-0.046-0.507,0.02-1.346,0.194-2.519
			c0.176-1.172,0.25-1.9,0.224-2.188c-0.025-0.286-0.133-0.421-0.318-0.404c-0.24,0.022-0.549,0.186-0.924,0.488
			c-0.031,0.244-0.112,0.836-0.242,1.775c-0.25,1.973-0.336,3.386-0.258,4.238C305.318,75.618,304.21,75.847,302.623,75.991z"/>
		<path d="M319.445,67.2l-1.772,0.021c-0.345,2.853-0.491,4.575-0.437,5.161c0.023,0.268,0.102,0.394,0.236,0.382
			c0.213-0.02,0.568-0.173,1.066-0.46l0.568,0.916c-0.416,0.455-0.933,0.838-1.55,1.148c-0.616,0.312-1.225,0.496-1.825,0.551
			c-0.6,0.055-1.098-0.062-1.493-0.349c-0.396-0.286-0.62-0.72-0.673-1.3s0.022-1.521,0.227-2.823s0.326-2.245,0.367-2.826
			c-0.199,0.032-0.647,0.12-1.347,0.264c-0.079-0.275-0.13-0.536-0.151-0.783c-0.023-0.246-0.016-0.524,0.023-0.839l1.54-0.141
			c-0.013-0.725-0.034-1.26-0.065-1.606s-0.074-0.665-0.127-0.956c1.254-0.545,2.467-0.871,3.641-0.977
			c0.116,0.244,0.195,0.586,0.234,1.025c0.041,0.441,0.006,1.17-0.104,2.188l1.84-0.167C319.695,66.176,319.629,66.699,319.445,67.2
			z"/>
		<path d="M326.973,73.894c-0.813,0.075-1.377-0.196-1.688-0.813c-0.93,0.73-1.799,1.132-2.612,1.206s-1.485-0.145-2.017-0.654
			c-0.529-0.508-0.85-1.363-0.959-2.563c-0.146-1.6,0.139-2.978,0.854-4.13c0.715-1.154,1.699-1.789,2.952-1.903
			c0.64-0.059,1.272,0.024,1.898,0.251c0.204-2.035,0.255-3.626,0.149-4.773c-0.032-0.359-0.09-0.689-0.17-0.992
			c1.208-0.459,2.392-0.742,3.552-0.848c0.138,0.176,0.237,0.61,0.3,1.304c0.063,0.694-0.047,2.508-0.33,5.444
			c-0.284,2.936-0.397,4.715-0.341,5.334c0.057,0.621,0.171,0.922,0.345,0.906l0.854-0.36l0.433,0.989
			C329.1,73.263,328.025,73.798,326.973,73.894z M324.188,72.111c0.227-0.021,0.48-0.124,0.759-0.312l-0.002-0.02
			c-0.075-0.826,0.03-2.55,0.315-5.17c-0.301-0.054-0.511-0.076-0.631-0.064c-0.493,0.045-0.834,0.518-1.021,1.414
			c-0.188,0.896-0.237,1.824-0.15,2.776C323.545,71.689,323.789,72.147,324.188,72.111z"/>
		<path d="M330.221,69.706c-0.15-1.653,0.234-2.985,1.158-3.997c0.922-1.012,2.123-1.585,3.604-1.72
			c1.027-0.094,1.87,0.055,2.531,0.445c0.66,0.391,1.024,0.958,1.093,1.705c0.047,0.52-0.077,1.008-0.371,1.465
			c-0.294,0.458-0.671,0.82-1.13,1.092c-0.919,0.541-1.773,0.9-2.563,1.08l-0.493,0.125c0.227,0.867,0.707,1.267,1.44,1.199
			c0.319-0.028,0.667-0.131,1.041-0.306s0.667-0.347,0.881-0.515l0.321-0.23l0.719,0.803l-0.2,0.239
			c-0.073,0.087-0.248,0.262-0.527,0.522c-0.278,0.26-0.573,0.492-0.884,0.695c-0.312,0.203-0.715,0.398-1.207,0.584
			c-0.494,0.186-0.994,0.303-1.501,0.349c-1.134,0.104-2.04-0.147-2.72-0.751C330.731,71.888,330.334,70.96,330.221,69.706z
			 M334.922,67.534c0.334-0.615,0.482-1.119,0.447-1.514c-0.035-0.393-0.168-0.58-0.395-0.559c-0.333,0.03-0.615,0.318-0.849,0.863
			c-0.232,0.546-0.325,1.301-0.277,2.264C334.23,68.501,334.588,68.149,334.922,67.534z"/>
		<path d="M340.385,59.101c-0.032-0.346-0.094-0.649-0.184-0.91c1.287-0.48,2.471-0.77,3.55-0.868
			c0.147,0.148,0.247,0.495,0.297,1.042c0.089,0.973-0.041,2.867-0.39,5.682c1.016-0.657,1.934-1.023,2.753-1.099
			c0.82-0.075,1.462,0.036,1.925,0.329c0.464,0.294,0.724,0.74,0.778,1.341c0.106,1.161-0.679,2.065-2.354,2.716
			c0.595,1.801,1.091,2.684,1.491,2.646l0.937-0.348l0.528,0.939c-0.309,0.297-0.797,0.617-1.465,0.961
			c-0.668,0.343-1.321,0.543-1.961,0.602c-0.641,0.059-1.148-0.137-1.525-0.588c-0.377-0.449-0.648-1.055-0.812-1.82
			c-0.165-0.765-0.29-1.627-0.377-2.588c0.626-0.217,1.11-0.494,1.456-0.828c0.347-0.334,0.506-0.65,0.479-0.951
			c-0.027-0.3-0.201-0.435-0.521-0.406c-0.253,0.023-0.544,0.124-0.87,0.302s-0.564,0.341-0.712,0.488
			c-0.442,3.104-0.617,5.171-0.523,6.198c-1.007,0.32-2.216,0.544-3.63,0.673c-0.022-0.104-0.041-0.231-0.055-0.378
			c-0.062-0.693,0.146-2.758,0.626-6.197C340.307,62.601,340.492,60.288,340.385,59.101z"/>
		<path d="M351.143,58.12c-0.031-0.346-0.092-0.649-0.182-0.91c1.286-0.48,2.47-0.77,3.549-0.868
			c0.148,0.148,0.248,0.495,0.297,1.042c0.089,0.973-0.041,2.867-0.389,5.682c1.015-0.657,1.933-1.023,2.752-1.098
			c0.82-0.075,1.463,0.035,1.926,0.328c0.464,0.294,0.723,0.74,0.777,1.341c0.105,1.161-0.678,2.065-2.354,2.716
			c0.594,1.801,1.092,2.684,1.492,2.646l0.936-0.348l0.529,0.939c-0.309,0.297-0.798,0.617-1.465,0.961
			c-0.668,0.343-1.322,0.544-1.962,0.602c-0.64,0.059-1.148-0.137-1.526-0.587c-0.377-0.449-0.646-1.056-0.811-1.821
			c-0.164-0.764-0.289-1.628-0.377-2.588c0.625-0.217,1.111-0.494,1.457-0.828s0.506-0.65,0.479-0.951
			c-0.027-0.299-0.201-0.435-0.521-0.405c-0.254,0.022-0.543,0.123-0.869,0.301c-0.327,0.178-0.564,0.341-0.713,0.488
			c-0.442,3.104-0.617,5.171-0.523,6.198c-1.006,0.32-2.216,0.544-3.629,0.674c-0.023-0.105-0.041-0.231-0.055-0.379
			c-0.062-0.693,0.146-2.758,0.625-6.197C351.065,61.62,351.252,59.308,351.143,58.12z"/>
		<path d="M364.943,62.62c0.054,0.594-0.03,1.522-0.251,2.787c-0.221,1.263-0.314,2.081-0.28,2.455
			c0.034,0.372,0.124,0.553,0.271,0.539c0.146-0.014,0.406-0.104,0.781-0.272l0.173-0.097l0.451,0.967
			c-0.422,0.389-0.957,0.746-1.606,1.073c-0.648,0.329-1.247,0.518-1.793,0.567c-0.547,0.051-0.99-0.064-1.332-0.342
			c-0.342-0.278-0.538-0.707-0.592-1.287c-0.053-0.58,0.03-1.482,0.248-2.705c0.219-1.223,0.312-1.995,0.283-2.314
			c-0.045-0.494-0.261-0.944-0.647-1.353l-0.18-0.206l0.028-0.345c0.674-0.276,2.011-0.506,4.011-0.688
			C364.744,61.62,364.889,62.028,364.943,62.62z M363.197,59.946c-0.607,0.055-1.096-0.061-1.465-0.35
			c-0.368-0.289-0.576-0.685-0.621-1.185c-0.046-0.499,0.126-0.938,0.516-1.317c0.389-0.378,0.883-0.595,1.482-0.649
			c0.601-0.054,1.08,0.043,1.438,0.292c0.358,0.25,0.562,0.629,0.607,1.135c0.046,0.507-0.117,0.966-0.489,1.375
			C364.293,59.658,363.804,59.891,363.197,59.946z"/>
		<path d="M367.298,70.099l-0.341,0.031c-0.074-0.826,0.001-2.098,0.229-3.812c0.227-1.714,0.328-2.697,0.306-2.951
			s-0.106-0.494-0.247-0.723c-0.143-0.23-0.279-0.398-0.41-0.508l-0.196-0.164l0.013-0.303c0.764-0.325,2.125-0.578,4.086-0.756
			c0.16,0.295,0.283,0.605,0.367,0.934c1.145-0.855,2.131-1.322,2.957-1.398c0.561-0.051,1.018,0.094,1.371,0.43
			c0.353,0.339,0.553,0.764,0.6,1.277s-0.025,1.35-0.215,2.51s-0.27,1.909-0.238,2.249c0.031,0.341,0.093,0.507,0.187,0.497
			l1.034-0.376l0.451,0.967c-0.398,0.358-0.924,0.706-1.579,1.041s-1.269,0.53-1.843,0.582c-1.146,0.104-1.773-0.43-1.88-1.604
			c-0.046-0.507,0.019-1.347,0.194-2.519c0.175-1.172,0.25-1.9,0.224-2.188s-0.133-0.422-0.319-0.404
			c-0.24,0.021-0.547,0.184-0.924,0.487c-0.031,0.245-0.111,0.837-0.241,1.776c-0.25,1.973-0.337,3.385-0.259,4.238
			C369.992,69.726,368.885,69.954,367.298,70.099z"/>
		<path d="M382.888,67.69c-0.888,0.592-1.698,0.92-2.431,0.987c-0.733,0.067-1.37-0.167-1.909-0.702
			c-0.54-0.537-0.861-1.377-0.966-2.523c-0.141-1.534,0.16-2.838,0.903-3.914c0.741-1.076,1.692-1.668,2.854-1.773
			c0.56-0.051,1.206,0.045,1.941,0.287c0.804-0.328,1.731-0.54,2.785-0.637l0.341-0.03c0.078,0.128,0.139,0.421,0.18,0.881
			c0.043,0.46,0.041,1.37-0.002,2.731c-0.045,1.363-0.125,2.506-0.242,3.431c-0.238,1.958-0.76,3.544-1.562,4.76
			c-0.804,1.216-1.865,1.884-3.186,2.004c-0.666,0.062-1.22-0.036-1.66-0.292c-0.439-0.256-0.68-0.61-0.722-1.063
			s0.034-0.839,0.228-1.16c0.192-0.319,0.486-0.599,0.881-0.837c0.676-0.41,1.516-0.775,2.521-1.096L382.888,67.69z M381.139,71.741
			c0.254-0.022,0.532-0.176,0.836-0.459c0.303-0.283,0.535-0.721,0.697-1.313c-1.431,0.385-2.122,0.838-2.074,1.358
			C380.652,71.632,380.832,71.77,381.139,71.741z M382.406,61.302c-0.467,0.042-0.787,0.475-0.961,1.297s-0.218,1.701-0.133,2.634
			c0.085,0.934,0.348,1.38,0.787,1.34c0.2-0.018,0.473-0.137,0.814-0.356c0.002-1.748,0.023-3.362,0.062-4.846
			C382.77,61.309,382.579,61.286,382.406,61.302z"/>
		<path d="M387.455,64.491c-0.15-1.653,0.235-2.986,1.158-3.998c0.922-1.012,2.124-1.584,3.604-1.719
			c1.026-0.094,1.87,0.055,2.53,0.444c0.66,0.392,1.025,0.958,1.093,1.706c0.048,0.52-0.075,1.008-0.37,1.465
			c-0.294,0.457-0.671,0.82-1.131,1.09c-0.918,0.543-1.772,0.902-2.562,1.082l-0.493,0.125c0.228,0.867,0.706,1.266,1.44,1.199
			c0.319-0.029,0.666-0.131,1.041-0.307c0.373-0.174,0.666-0.346,0.881-0.514l0.321-0.23l0.718,0.802l-0.199,0.239
			c-0.072,0.088-0.249,0.263-0.527,0.522c-0.279,0.261-0.574,0.493-0.885,0.696s-0.713,0.397-1.207,0.584
			c-0.493,0.186-0.994,0.302-1.5,0.348c-1.135,0.104-2.041-0.147-2.721-0.75C387.967,66.673,387.57,65.745,387.455,64.491z
			 M392.157,62.318c0.334-0.615,0.483-1.118,0.446-1.513c-0.035-0.393-0.166-0.58-0.393-0.559c-0.334,0.029-0.617,0.318-0.85,0.863
			s-0.324,1.301-0.277,2.264C391.465,63.286,391.823,62.935,392.157,62.318z"/>
		<path d="M397.016,67.391l-0.34,0.03c-0.076-0.825,0-2.096,0.227-3.811s0.329-2.699,0.307-2.951
			c-0.023-0.254-0.105-0.495-0.248-0.725c-0.142-0.229-0.278-0.398-0.409-0.506l-0.196-0.164l0.012-0.305
			c0.765-0.324,2.126-0.576,4.086-0.756c0.161,0.296,0.283,0.607,0.367,0.936c1.146-0.857,2.131-1.323,2.958-1.398
			c0.56-0.051,1.017,0.092,1.37,0.43s0.553,0.763,0.6,1.275c0.047,0.515-0.024,1.351-0.215,2.51c-0.189,1.161-0.27,1.91-0.238,2.25
			s0.093,0.506,0.188,0.498l1.033-0.377l0.451,0.967c-0.397,0.359-0.924,0.706-1.578,1.041c-0.655,0.336-1.27,0.529-1.843,0.582
			c-1.147,0.104-1.773-0.43-1.881-1.604c-0.046-0.506,0.019-1.346,0.194-2.518s0.25-1.9,0.225-2.188
			c-0.027-0.286-0.133-0.421-0.32-0.404c-0.239,0.022-0.547,0.185-0.923,0.487c-0.031,0.245-0.112,0.837-0.241,1.776
			c-0.251,1.973-0.337,3.386-0.26,4.238C399.71,67.018,398.602,67.246,397.016,67.391z"/>
		<path d="M409.553,66.45c-0.574,0.053-1.027-0.055-1.36-0.319c-0.333-0.266-0.523-0.651-0.569-1.158
			c-0.047-0.507,0.119-0.969,0.498-1.387c0.379-0.417,0.859-0.653,1.438-0.706c0.58-0.053,1.04,0.064,1.383,0.349
			c0.342,0.284,0.535,0.674,0.58,1.167s-0.129,0.946-0.521,1.357C410.607,66.165,410.125,66.397,409.553,66.45z M412.447,52.413
			c0.089,0.975-0.082,2.607-0.512,4.897s-0.763,3.688-0.999,4.194c-0.399,0.184-0.786,0.293-1.159,0.328
			c-0.374,0.033-0.696,0.035-0.968,0.006c0.049-3.297-0.011-5.867-0.179-7.707l-0.277-1.729c1.425-0.586,2.67-0.929,3.736-1.026
			C412.283,51.575,412.402,51.921,412.447,52.413z"/>
	</g>
</g>
<g>
	<path fill="#FFFFFF" d="M132.797,24.256c-2.105-5.333-8.135-7.95-13.468-5.845c-2.873,1.134-4.956,3.408-5.939,6.098
		c-2.253-1.39-5.111-1.736-7.762-0.69c-4.467,1.764-6.659,6.814-4.896,11.281c1.168,2.96,3.781,4.919,6.71,5.393
		c1.444,5.695,3.824,12.807,6.925,14.153c4.726,2.051,17.629-2.65,19.17-7.567c0.796-2.539-0.933-7.291-3.036-11.69
		C133.319,32.552,134.359,28.213,132.797,24.256z"/>
	<path fill="#241F20" d="M132.704,24.294c-0.394-0.967-0.92-1.857-1.573-2.661c-0.667-0.789-1.456-1.467-2.323-2.012
		c-1.756-1.059-3.811-1.553-5.795-1.42c-1.982,0.112-3.89,0.913-5.411,2.057c-1.533,1.171-2.704,2.764-3.372,4.558l-0.382,1.026
		l-0.927-0.572c-1.958-1.208-4.425-1.585-6.689-0.906c-2.268,0.656-4.23,2.393-5.169,4.657c-0.951,2.258-0.762,4.979,0.511,7.11
		c1.236,2.148,3.517,3.636,5.94,3.923l0.275,0.033l0.085,0.297c0.576,2.005,1.22,3.989,1.981,5.913
		c0.775,1.91,1.604,3.818,2.715,5.451c0.552,0.802,1.211,1.536,1.903,1.931c0.69,0.376,1.636,0.498,2.598,0.506
		c1.937-0.005,3.942-0.439,5.859-1.046c1.916-0.629,3.802-1.4,5.519-2.414c0.853-0.509,1.681-1.053,2.402-1.68
		c0.716-0.62,1.344-1.335,1.649-2.066c0.289-0.686,0.305-1.632,0.191-2.591c-0.121-0.961-0.334-1.95-0.605-2.93
		c-0.546-1.963-1.247-3.925-2.044-5.848l-0.147-0.356l0.246-0.222c1.415-1.28,2.474-3.003,2.955-4.911
		C133.57,28.209,133.423,26.146,132.704,24.294z M132.89,24.218c0.76,1.876,0.978,3.973,0.63,5.99
		c-0.328,2.021-1.24,3.978-2.657,5.54l0.098-0.579c1.003,1.858,1.973,3.751,2.718,5.776c0.369,1.014,0.7,2.056,0.884,3.17
		c0.168,1.097,0.306,2.329-0.185,3.611c-0.49,1.221-1.301,2.112-2.136,2.882c-0.849,0.762-1.757,1.411-2.709,1.961
		c-1.904,1.099-3.909,1.958-5.998,2.556c-2.088,0.593-4.24,1.014-6.501,0.962c-1.116-0.05-2.326-0.183-3.476-0.839
		c-1.116-0.691-1.794-1.649-2.394-2.582c-1.159-1.898-1.916-3.905-2.551-5.933c-0.628-2.029-1.143-4.077-1.601-6.133l0.36,0.33
		c-2.647-0.519-5.009-2.18-6.326-4.494c-1.339-2.29-1.638-5.163-0.765-7.708c0.826-2.559,2.878-4.748,5.484-5.722
		c2.582-1.022,5.694-0.77,8.094,0.741l-1.309,0.454c0.763-2.135,2.235-4.021,4.12-5.258c1.888-1.272,4.129-1.84,6.329-1.771
		c2.197,0.074,4.326,0.832,6.041,2.102C130.773,20.514,132.127,22.256,132.89,24.218z"/>
</g>
<path fill="#241F20" d="M118.875,38.562c3.125,0.062,8.539-1.5,10-2.812c0.877-0.788-2.156,2.374-3.25,2.812
	C123.974,39.224,117.096,38.527,118.875,38.562z"/>
</svg>
