<?xml version="1.0" encoding="utf-8"?>
<!-- Generator: Adobe Illustrator 15.1.0, SVG Export Plug-In . SVG Version: 6.00 Build 0)  -->
<!DOCTYPE svg PUBLIC "-//W3C//DTD SVG 1.1//EN" "http://www.w3.org/Graphics/SVG/1.1/DTD/svg11.dtd">
<svg version="1.1" id="Layer_1" xmlns="http://www.w3.org/2000/svg" xmlns:xlink="http://www.w3.org/1999/xlink" x="0px" y="0px"
	 width="1024px" height="768px" viewBox="0 0 1024 768" enable-background="new 0 0 1024 768" xml:space="preserve">
<g>
	<g>
		<g>
			<path opacity="0.3" fill="#FFFFFF" enable-background="new    " d="M67.323,5.715C27.892,0.118-10.254-9.919-48.15-24.941
				c-40.497-17.466-78.569-40.005-115.474-67.531c0,49.175,0.001,98.352,0,147.527c0,49.177,0.003,98.354,0,147.531
				c36.905,27.528,74.977,50.066,115.475,67.531c37.896,15.023,76.042,25.061,115.473,30.658c-0.003-49.177,0-98.355,0-147.532
				C67.322,104.067,67.323,54.891,67.323,5.715z"/>
			<path opacity="0.3" fill="#FFFFFF" enable-background="new    " d="M298.27,281.001c-38.274,9.501-76.611,16.783-115.474,20.939
				c-38.635,3.297-76.891,3.182-115.473-1.166c-0.001,49.176,0,98.354,0,147.531c-0.001,49.174-0.001,98.351,0,147.525
				c38.583,4.351,76.836,4.457,115.473,1.167c38.863-4.165,77.198-11.437,115.474-20.937c0-49.177,0-98.354,0-147.53
				C298.27,379.357,298.27,330.18,298.27,281.001z"/>
			<path opacity="0.3" fill="#FFFFFF" enable-background="new    " d="M527.869,202.847c0-49.178,0-98.355,0-147.532
				s0-98.352,0-147.529c-38.182,14.617-76.387,29.114-114.797,42.727c-38.025,13.204-76.2,25.286-114.801,35.43
				c0,49.175,0,98.352,0,147.529s0,98.355,0,147.532c38.601-10.149,76.774-22.226,114.8-35.431
				C451.482,231.959,489.687,217.463,527.869,202.847z"/>
			<path opacity="0.3" fill="#FFFFFF" enable-background="new    " d="M758.822,124.171
				c-38.829,10.209-77.228,22.375-115.476,35.667c-38.639,13.705-77.065,28.308-115.478,43.008c0,49.176,0,98.353,0,147.53
				c0,49.177-0.003,98.354,0,147.529c38.413-14.694,76.839-29.299,115.478-43.006c38.247-13.301,76.646-25.462,115.476-35.671
				c-0.003-49.176,0-98.352,0-147.528C758.822,222.524,758.822,173.347,758.822,124.171z"/>
			<path opacity="0.3" fill="#FFFFFF" enable-background="new    " d="M989.767,104.395c0-49.177,0-98.355,0-147.533
				c0-49.176,0-98.352,0-147.529c-38.583-4.345-76.834-4.454-115.47-1.167c-38.862,4.162-77.2,11.436-115.474,20.942
				c0,49.177,0,98.354,0,147.531c0,49.177,0,98.354,0,147.531c38.272-9.509,76.611-16.78,115.474-20.942
				C912.933,99.94,951.184,100.05,989.767,104.395z"/>
			<path opacity="0.3" fill="#FFFFFF" enable-background="new    " d="M1105.244,135.054c-37.9-15.02-76.044-25.058-115.478-30.659
				c0,49.176,0,98.354,0,147.531c0,49.176-0.003,98.352,0,147.526c39.433,5.603,77.581,15.633,115.478,30.661
				c40.496,17.465,78.568,40.007,115.473,67.533c0-49.176,0-98.353,0-147.529c0-49.176,0-98.354,0-147.53
				C1183.813,175.058,1145.739,152.525,1105.244,135.054z"/>
			<path opacity="0.3" fill="#FFFFFF" enable-background="new    " d="M758.822,419.229c0,48.888,0,97.778,0,146.665
				c-0.003,48.888,0,97.776,0,146.663c38.275-9.501,76.611-16.765,115.474-20.939c38.636-3.281,76.887-3.176,115.47,1.173
				c0.006-48.888-0.003-97.777,0-146.665c0-48.889,0-97.782,0-146.673c-38.583-4.339-76.833-4.453-115.47-1.165
				C835.434,402.453,797.097,409.726,758.822,419.229z"/>
			<path opacity="0.3" fill="#FFFFFF" enable-background="new    " d="M298.27,576.063c0,48.89,0,97.779,0,146.669
				c0,48.888-0.001,97.776,0,146.664c38.601-10.149,76.776-22.226,114.801-35.431c38.41-13.617,76.615-28.108,114.797-42.727
				c0-48.89-0.003-97.777,0-146.666c0-48.89,0-97.779,0-146.669c-38.181,14.626-76.388,29.11-114.797,42.728
				C375.045,553.833,336.871,565.911,298.27,576.063z"/>
			<path opacity="0.3" fill="#FFFFFF" enable-background="new    " d="M-163.624,497.646c-0.001,48.89,0,97.78,0,146.67
				c0.001,48.889,0,97.779,0,146.667c36.905,27.523,74.976,50.068,115.474,67.531c37.896,15.021,76.043,25.062,115.474,30.656
				c-0.001-48.888-0.001-97.779,0-146.667c0-48.891,0.001-97.78,0-146.671c-39.431-5.586-77.578-15.635-115.474-30.656
				C-88.647,547.712-126.719,525.174-163.624,497.646z"/>
		</g>
	</g>
	<g>
		<g>
			<path opacity="0.3" fill="#FFFFFF" enable-background="new    " d="M-1414.233-411.742
				c-37.633-4.179-74.037-11.682-110.206-22.901c-38.65-13.047-74.99-29.883-110.211-50.448c0,36.736,0,73.473,0,110.209
				c0.002,36.736,0,73.473,0.001,110.209c35.218,20.567,71.561,37.405,110.21,50.449c36.167,11.221,72.573,18.724,110.205,22.9
				c0.003-36.736,0.001-73.472,0.001-110.208C-1414.233-338.268-1414.233-375.006-1414.233-411.742z"/>
			<path opacity="0.3" fill="#FFFFFF" enable-background="new    " d="M-1193.817-206.097
				c-36.528,7.103-73.119,12.536-110.209,15.643c-36.875,2.461-73.384,2.376-110.208-0.871c0.003,36.736,0.001,73.472,0.001,110.208
				c0,36.737-0.003,73.474,0,110.211c36.821,3.254,73.334,3.333,110.207,0.871c37.091-3.105,73.68-8.543,110.209-15.641
				c0-36.737,0-73.475,0-110.212C-1193.817-132.623-1193.817-169.36-1193.817-206.097z"/>
			<path opacity="0.3" fill="#FFFFFF" enable-background="new    " d="M-974.687-264.479c0-36.737,0-73.474,0-110.211
				s0-73.473,0-110.21c-36.442,10.917-72.902,21.747-109.562,31.917c-36.292,9.863-72.727,18.892-109.569,26.466
				c0,36.737,0,73.474,0,110.21s0,73.472,0,110.208c36.843-7.575,73.276-16.604,109.569-26.466
				C-1047.588-242.729-1011.128-253.56-974.687-264.479z"/>
			<path opacity="0.3" fill="#FFFFFF" enable-background="new    " d="M-754.261-323.253c-37.06,7.626-73.707,16.715-110.212,26.646
				c-36.877,10.237-73.555,21.141-110.214,32.128c0,36.736,0,73.471,0,110.207c0,36.737,0,73.475,0,110.212
				c36.661-10.983,73.336-21.894,110.214-32.129c36.505-9.932,73.152-19.02,110.212-26.646c0-36.736,0-73.473,0-110.209
				C-754.261-249.78-754.261-286.517-754.261-323.253z"/>
			<path opacity="0.3" fill="#FFFFFF" enable-background="new    " d="M-533.848-338.025c0-36.737,0-73.473,0-110.21
				s0-73.473,0-110.21c-36.824-3.246-73.332-3.33-110.207-0.871c-37.09,3.109-73.678,8.543-110.206,15.643
				c0,36.737,0,73.473,0,110.21c0,36.737,0,73.474,0,110.21c36.529-7.097,73.116-12.533,110.206-15.643
				C-607.18-341.354-570.672-341.274-533.848-338.025z"/>
			<path opacity="0.3" fill="#FFFFFF" enable-background="new    " d="M-423.638-315.123
				c-36.169-11.224-72.576-18.725-110.21-22.903c0,36.736,0,73.471,0,110.207c0,36.737,0,73.475,0,110.212
				c37.634,4.18,74.04,11.68,110.21,22.902c38.651,13.047,74.987,29.887,110.209,50.451c0-36.737,0-73.474,0-110.211
				c0-36.737,0-73.473,0-110.21C-348.652-285.237-384.987-302.071-423.638-315.123z"/>
			<path opacity="0.3" fill="#FFFFFF" enable-background="new    " d="M-754.261-102.835c-0.003,36.521-0.004,73.042,0.002,109.563
				c-0.006,36.521-0.002,73.043-0.002,109.564c36.53-7.096,73.116-12.529,110.206-15.644c36.875-2.456,73.383-2.372,110.207,0.873
				c0.006-36.521,0.002-73.043-0.001-109.564c0.003-36.521-0.002-73.043,0.001-109.564c-36.825-3.245-73.331-3.325-110.207-0.872
				C-681.145-115.367-717.732-109.934-754.261-102.835z"/>
			<path opacity="0.3" fill="#FFFFFF" enable-background="new    " d="M-1193.817,14.325c0,36.521,0,73.042,0,109.563
				s0.006,73.043,0,109.564c36.842-7.579,73.276-16.604,109.569-26.466c36.658-10.172,73.119-21.003,109.562-31.917
				c0-36.521,0-73.043,0-109.564s-0.003-73.044,0-109.565c-36.443,10.914-72.902,21.749-109.562,31.918
				C-1120.542-2.282-1156.977,6.74-1193.817,14.325z"/>
			<path opacity="0.3" fill="#FFFFFF" enable-background="new    " d="M-1634.65-44.253c0,36.521,0,73.042,0.001,109.563
				c-0.001,36.522,0.001,73.045-0.001,109.567c35.222,20.564,71.561,37.401,110.211,50.447
				c36.165,11.225,72.575,18.727,110.206,22.9c-0.003-36.521,0.002-73.044-0.001-109.565c0.003-36.521,0.001-73.044,0.001-109.565
				c-37.632-4.177-74.04-11.675-110.206-22.902C-1563.092-6.847-1599.428-23.694-1634.65-44.253z"/>
		</g>
	</g>
</g>
</svg>
